<svg xmlns="http://www.w3.org/2000/svg" viewBox="0 0 455.36 480">
  <defs>
    <style>
      .cls-1 {
        fill: #fff;
      }

      .cls-2 {
        fill: #1f2937;
      }
    </style>
  </defs>
  <g id="Amenities">
    <path class="cls-2" d="M295.88,152.53l70.89-70.89a6.84,6.84,0,1,1,9.67,9.67L305.55,162.2a6.84,6.84,0,0,1-9.67-9.67Zm19.27,28.65a6.86,6.86,0,0,0,9.68,0l70.89-70.89a6.84,6.84,0,0,0-9.67-9.67l-70.89,70.89A6.85,6.85,0,0,0,315.15,181.18Zm13.69,39.15,88-88a6.84,6.84,0,1,0-9.67-9.67l-88,88a36.32,36.32,0,0,1-41.25,7.08,6.84,6.84,0,0,0-8.06,1.63L240,253.06l0,0,0,0L110.65,398.74l-.1.12c-.42.5-.83.94-1.23,1.34a21.88,21.88,0,1,1-30.94-30.95c.39-.4.83-.8,1.34-1.23l.11-.1,105.42-93.57,13.07-11.6,60.88-54a6.83,6.83,0,0,0,1.63-8.06,36.32,36.32,0,0,1,7.08-41.25l88-88a6.83,6.83,0,1,0-9.66-9.67l-88,88a50,50,0,0,0-11.75,52l-27.08,24-26-23.1a68.77,68.77,0,0,0-12.8-80c-21.21-21.21-45.78-36.14-69.17-42-24.43-6.14-45.37-2-59,11.56s-17.71,34.55-11.56,59c5.89,23.4,20.82,48,42,69.17a68.79,68.79,0,0,0,80,12.81l21.29,24-8.41,7.34-105,93.18c-.77.66-1.47,1.29-2.11,1.94A35.56,35.56,0,0,0,119,409.88c.66-.66,1.29-1.35,2-2.11l98.48-111,98.48,111c.66.76,1.29,1.45,1.95,2.1a35.56,35.56,0,0,0,50.29-50.28c-.66-.65-1.35-1.29-2.12-1.94L254.69,257.06l22.17-25A50,50,0,0,0,328.84,220.33Zm-159.37-.39a6.84,6.84,0,0,0-8.7-1.28,55.17,55.17,0,0,1-68.2-8c-19.49-19.49-33.13-41.8-38.43-62.84-4.93-19.57-2.1-35.89,8-46s26.39-12.89,46-8c21,5.3,43.35,19,62.84,38.43a55.17,55.17,0,0,1,8,68.2,6.84,6.84,0,0,0,1.28,8.7l28.92,25.67L194.36,248ZM359,367.92l.11.1c.5.43.94.83,1.35,1.24A21.88,21.88,0,1,1,329.5,400.2c-.4-.41-.81-.85-1.23-1.35a.52.52,0,0,1-.1-.11L228.55,286.51l17.06-19.22Z" transform="translate(-1.58)"/>
  </g>
</svg>
