<?xml version="1.0" encoding="utf-8"?>
<!-- Generator: Adobe Illustrator 24.1.3, SVG Export Plug-In . SVG Version: 6.00 Build 0)  -->
<svg version="1.1" id="Layer_1" xmlns="http://www.w3.org/2000/svg" xmlns:xlink="http://www.w3.org/1999/xlink" x="0px" y="0px"
	 viewBox="0 0 455.4 480" style="enable-background:new 0 0 455.4 480;" xml:space="preserve">
<style type="text/css">
	.st0{display:none;}
	.st1{display:inline;fill:#1F2937;}
	.st2{fill:#1F2937;stroke:#1F2937;stroke-width:17.8468;stroke-miterlimit:10;}
	.st3{fill:#1F2937;stroke:#1F2937;stroke-miterlimit:10;}
</style>
<g id="Capa_1" class="st0">
	<path class="st1" d="M226.9,46.5C120.2,46.5,33.4,133.3,33.4,240s86.8,193.5,193.5,193.5S420.3,346.7,420.3,240
		S333.6,46.5,226.9,46.5z M226.9,60.5c99,0,179.4,80.5,179.4,179.4c0,26.9-6,53.4-17.7,77.6c-17.7-9.8-76.1-38-163.5-40.8l2.3-29.3
		c0-2.6,1.4-5,3.8-6.1c7.9-3.9,14.1-10.7,17.4-18.9c1.1-2.7,4.1-4,6.9-3c0.3,0.1,0.5,0.2,0.7,0.4c39.8,23.5,48.6,8.4,47.9,0.2
		c-0.2-2.2-2-3.8-4.2-3.7c-5.4,0.3-15.9-0.1-18-2.1c-1.9-1.7-0.5-6.7,1.5-8.3s6.8-3.6,12.9-4.6c4.4-0.7,8.9-0.9,13.4-0.6
		c12.5,0.8,24.2,6.4,32.7,15.6c13.7,14.7,33.1,14.4,43.5,4.1c2.6-2.6,0.7-7.5-2.5-9.4c-1.8-1.1-3.1-3.2-4-5.2
		c-0.9-2.3-3.1-4-5.6-4.4c-5.2-0.6-2.6-7.4,0.3-12.6c1.1-2,0.3-4.4-1.6-5.5c-0.6-0.3-1.3-0.5-1.9-0.5h-11.2c-2.2,0-4-1.7-4.1-3.9
		c0-0.7,0.2-1.5,0.5-2.1l3.7-6.9c1-1.9,0.3-4.4-1.6-5.4c0,0-0.1,0-0.1-0.1c-3.9-2.1-6.6-6.7-8.2-10.5c-1.3-3-4.5-4.6-7.7-4
		c-6.5,1.3-8.3-0.6-8.5-2.6c-0.2-2.2-2.1-3.9-4.3-3.8c-24.3,1.3-29.4-6.4-30.3-11.2c-0.4-2-2.1-3.5-4.2-3.6
		c-12-0.4-14.2-5.9-14.4-9.3c-0.1-1.8-1.4-3.3-3.1-3.7c-4.3-1.1-8.7-1.1-13,0.1c-3.6,1-7.3-1-8.5-4.5c-3.8-11.7-15.8-11.9-19-11.7
		c-0.6,0-1.2-0.1-1.7-0.3c-15.4-6.2-31.9-1.6-36.6-0.1c-0.8,0.2-1.4,0.7-1.9,1.3c-5.4,7.3-17.7,6.7-24.9,5.5
		c-2.8-0.4-5.5,1.1-6.5,3.8c-3.6,8.9-14.6,7.4-16.9,7c-0.3,0-0.5-0.1-0.8-0.3c-7.7-4.4-16.1,5.8-19.9,11.4c-1.2,1.8-0.9,4.2,0.8,5.5
		c18.8,14.8,5.4,15-2.4,14.2c-2.3-0.3-4.6,0.6-6.2,2.4c-2.9,3.5-8.2,5.1-11.3,5.8c-1.7,0.4-3,1.8-3.2,3.5
		c-1.8,16.1,7.4,15.9,10.2,15.5c-2.2,0.8-3.6,5-4.5,9.1c-0.8,3.6-4.1,5.2-7.6,3.8c-5.3-2.2-8.1,2.8-9.5,7.3c-0.7,2.2-3,3.4-5.1,2.7
		c-0.4-0.1-0.7-0.3-1.1-0.5c-7.6-5-21.4-10.9-21.4,12.9c0,23.6,5.4,26.2,8.5,25.8c1.3-0.2,2.6,0.3,3.5,1.3c1.3,1.8,3.1,3.1,5.1,3.9
		c3.5,1.3,7.5-0.6,8.7-4.1l0,0c4.2-11.4,19.1-10.4,23.1-9.9c0.6,0.1,1.2,0.3,1.8,0.7c35.9,24.3,46.6,14.8,49.5,9.7
		c0.8-1.4,2.4-2.2,4-2.1c8.9,0.6,21.5,0.3,29.3,0c3.8-0.1,7,2.8,7.1,6.6c0,0.1,0,0.2,0,0.3l-2.4,34.3c-92.6,1.1-133.4,25-143.6,32.2
		C52.1,287,47.4,263.6,47.4,240C47.4,141.1,127.9,60.5,226.9,60.5z M221.5,325.5c-70.8-47.9-119.5-22.7-157.7-10.8
		c-0.1-0.3-0.3-0.6-0.4-0.9c43.6-21.7,91.5-31,148.3-6.1c96.3,49.6,135.2,52.7,156.4,43c-3.8,4.8-7.8,9.4-12,13.7
		C332.6,370.7,292.6,365,221.5,325.5L221.5,325.5z"/>
</g>
<g class="st0">
	<path class="st1" d="M227.7,63.3c47.2,0,91.5,18.4,124.9,51.7s51.7,77.7,51.7,124.9s-18.4,91.5-51.7,124.9s-77.7,51.7-124.9,51.7
		s-91.5-18.4-124.9-51.7S51,287.2,51,240s18.4-91.5,51.7-124.9S180.5,63.3,227.7,63.3 M227.7,49.3C122.4,49.3,37,134.7,37,240
		s85.4,190.7,190.7,190.7S418.3,345.3,418.3,240S333,49.3,227.7,49.3L227.7,49.3z"/>
</g>
<g class="st0">
	<path class="st1" d="M173.7,346.2V152.9h62.6c23.7,0,39.2,1,46.4,2.9c11.1,2.9,20.3,9.2,27.8,18.9s11.2,22.3,11.2,37.6
		c0,11.9-2.2,21.8-6.5,29.9c-4.3,8.1-9.8,14.4-16.4,19.1c-6.6,4.6-13.4,7.7-20.2,9.2c-9.3,1.8-22.8,2.8-40.5,2.8h-25.4v72.9
		L173.7,346.2L173.7,346.2z M212.8,185.6v54.8h21.4c15.4,0,25.7-1,30.8-3c5.2-2,9.2-5.2,12.2-9.5c2.9-4.3,4.4-9.3,4.4-15
		c0-7-2.1-12.8-6.2-17.4c-4.1-4.6-9.4-7.4-15.7-8.6c-4.7-0.9-14-1.3-28.1-1.3H212.8z"/>
</g>
<g>
	<g>
		<path class="st2" d="M228,72.3c44.7,0,86.7,17.4,118.4,49s49,73.6,49,118.4s-17.4,86.7-49,118.4s-73.6,49-118.4,49
			s-86.7-17.4-118.4-49s-49.1-73.5-49.1-118.3s17.4-86.7,49-118.4S183.3,72.3,228,72.3 M228,59c-99.8,0-180.7,80.9-180.7,180.7
			S128.2,420.5,228,420.5s180.6-80.9,180.6-180.7S327.8,59,228,59L228,59z"/>
	</g>
	<g>
		<path class="st3" d="M174.5,333.9V159.4H231c21.4,0,35.4,0.9,41.9,2.6c10,2.6,18.3,8.3,25.1,17.1c6.8,8.8,10.1,20.1,10.1,33.9
			c0,10.7-2,19.7-5.9,27c-3.9,7.3-8.8,13-14.8,17.2c-6,4.2-12.1,7-18.2,8.3c-8.4,1.6-20.6,2.5-36.6,2.5h-22.9v65.8L174.5,333.9
			L174.5,333.9z M209.8,188.9v49.5h19.3c13.9,0,23.2-0.9,27.8-2.7c4.7-1.8,8.3-4.7,11-8.6c2.6-3.9,4-8.4,4-13.5
			c0-6.3-1.9-11.6-5.6-15.7c-3.7-4.2-8.5-6.7-14.2-7.8c-4.2-0.8-12.6-1.2-25.4-1.2H209.8z"/>
	</g>
</g>
</svg>
