<svg xmlns="http://www.w3.org/2000/svg" viewBox="0 0 455.36 480">
  <defs>
    <style>
      .cls-1 {
        fill: #fff;
      }

      .cls-2 {
        fill: #1f2937;
      }
    </style>
  </defs>
  <g id="Capa_1" data-name="Capa 1">
    <path class="cls-2" d="M228.47,46.55C121.8,46.55,35,133.33,35,240S121.8,433.45,228.47,433.45,421.92,346.67,421.92,240,335.14,46.55,228.47,46.55Zm0,14c99,0,179.45,80.5,179.45,179.45a178.38,178.38,0,0,1-17.67,77.62c-17.7-9.77-76.14-38.05-163.47-40.84l2.31-29.3a6.87,6.87,0,0,1,3.75-6.13,36.21,36.21,0,0,0,17.44-18.87,5.28,5.28,0,0,1,7.59-2.6c39.8,23.52,48.57,8.44,47.94.22a4,4,0,0,0-4.18-3.7c-5.42.27-15.91-.14-18-2.05-1.87-1.72-.46-6.73,1.52-8.31s6.79-3.6,12.9-4.65a55.59,55.59,0,0,1,13.39-.61,49,49,0,0,1,32.66,15.57c13.72,14.66,33.11,14.37,43.54,4.05,2.64-2.61.72-7.53-2.5-9.39-1.83-1.06-3.13-3.2-4-5.24a7.12,7.12,0,0,0-5.56-4.39c-5.22-.59-2.56-7.4.31-12.62a4.06,4.06,0,0,0-3.57-6H361.16a4,4,0,0,1-3.55-6l3.72-6.85a4,4,0,0,0-1.76-5.47c-3.9-2.06-6.59-6.72-8.22-10.51a6.92,6.92,0,0,0-7.68-4c-6.47,1.28-8.26-.55-8.47-2.63a4.11,4.11,0,0,0-4.28-3.79c-24.31,1.32-29.41-6.38-30.26-11.2a4.38,4.38,0,0,0-4.22-3.59c-12-.36-14.2-5.86-14.37-9.25a4,4,0,0,0-3.12-3.68,25.7,25.7,0,0,0-13,.09,6.89,6.89,0,0,1-8.46-4.52c-3.78-11.68-15.77-11.88-19-11.71a4.05,4.05,0,0,1-1.72-.29c-15.37-6.16-31.85-1.64-36.56-.1a3.75,3.75,0,0,0-1.9,1.32c-5.39,7.33-17.74,6.65-24.91,5.52a6.06,6.06,0,0,0-6.54,3.77c-3.65,8.93-14.6,7.44-16.87,7a2.31,2.31,0,0,1-.77-.29c-7.74-4.38-16.11,5.82-19.91,11.38a4.07,4.07,0,0,0,.82,5.51c18.83,14.83,5.41,15-2.37,14.2a7.12,7.12,0,0,0-6.19,2.35c-2.92,3.48-8.15,5.07-11.35,5.75A4.06,4.06,0,0,0,107,159.3c-1.82,16.11,7.4,15.92,10.18,15.51-2.21.81-3.64,5-4.52,9.1-.78,3.65-4.1,5.23-7.55,3.81-5.31-2.19-8.12,2.84-9.53,7.31a4.1,4.1,0,0,1-6.19,2.2c-7.61-5-21.38-10.87-21.38,12.92,0,23.63,5.43,26.2,8.49,25.77A3.76,3.76,0,0,1,80,237.19a12.18,12.18,0,0,0,5.13,3.95A6.82,6.82,0,0,0,93.87,237C98.08,225.65,113,226.63,117,227.1a4.08,4.08,0,0,1,1.78.68c35.86,24.34,46.59,14.75,49.5,9.7a4.24,4.24,0,0,1,4-2.1c8.89.57,21.49.3,29.3,0a6.89,6.89,0,0,1,7.13,6.9l-2.36,34.27C113.78,277.66,73,301.53,62.72,308.75A178.49,178.49,0,0,1,49,240C49,141.05,129.52,60.55,228.47,60.55Zm-5.4,265c-70.82-47.85-119.47-22.69-157.71-10.79-.14-.31-.29-.61-.43-.92,43.56-21.72,91.45-31,148.25-6.15,96.32,49.62,135.15,52.68,156.42,43a179.74,179.74,0,0,1-12,13.73C334.13,370.69,294.16,365,223.07,325.57Z" transform="translate(-1.58)"/>
  </g>
</svg>
