<svg xmlns="http://www.w3.org/2000/svg" viewBox="0 0 653.9 438.7"><defs><style>.cls-1{fill:#eb9b40;}.cls-2{fill:#5b3ba2;}.cls-3{fill:#3c61a4;}.cls-4{fill:#c4cd50;}</style></defs><g id="Layer_2" data-name="Layer 2"><g id="Layer_1-2" data-name="Layer 1"><path class="cls-1" d="M145.5,270c28,1.6,56.1,1.6,83.9-1s54.9-7.7,80.9-17.6,51.7-20.6,77.8-31.7,53.4-21.6,82.5-27.6a231.5,231.5,0,0,1,54.6-4.3,10.8,10.8,0,0,0,10.6-14.5C501.6,82.4,415.1,16.5,311.9,13.7,175.9,9.9,62.5,117.2,58.7,253.2h0a8,8,0,0,0,6.8,8.1C92,265.4,118.7,268.4,145.5,270Z"/><path d="M521.5,164.4a236.1,236.1,0,0,0-44.1-73.5,244.9,244.9,0,0,0-106-70.1,245.7,245.7,0,0,0-41.5-9.9c-7-1-14.1-1.7-21.2-2.2l-10.6-.4h-5.4l-5.3.2A233.2,233.2,0,0,0,167.7,46.6c-23.7,15.3-44.3,34.9-61.8,56.8A270.6,270.6,0,0,0,45.8,259.1H42.1c.3-2.5.7-5.1,1.1-7.6l1.1-7.6h1.4v7.7c0,2.5,0,5.1-.1,7.7l-3.6-.2a229.7,229.7,0,0,1,10.6-86.9A243.7,243.7,0,0,1,70,131.4,240.5,240.5,0,0,1,94.5,94.3c18.6-23.2,41.6-42.6,66.8-57.9a251.3,251.3,0,0,1,82.1-32A230.9,230.9,0,0,1,287.3,0a267.7,267.7,0,0,1,43.8,3.5,249.7,249.7,0,0,1,82.2,29.4,245.5,245.5,0,0,1,66.9,55.6,239.9,239.9,0,0,1,42.7,75.4Z"/><path class="cls-2" d="M.7,272.2c105.2,23.4,225.3,43.2,330.1,7.5C410,252.8,486,199.8,573.6,217.5c30,6.1,54.7,16.3,80.3,36.7-66-20.4-106.5-9.3-129.7-.7-85.2,31.9-160.8,87.2-254,92.9S77.4,325.7.7,272.2Z"/><path d="M.3,271.2c13.8,2.8,27.7,5.5,41.5,8s27.8,5,41.7,7.1a762.2,762.2,0,0,0,83.8,8.4A477.2,477.2,0,0,0,251,291a380.5,380.5,0,0,0,41-8,372.7,372.7,0,0,0,39.6-12.8c13-5.1,25.9-10.6,38.7-16.4S396,242.1,409,236.5c6.5-2.8,13.1-5.6,19.8-8.1l10-3.8,10.2-3.5c6.8-2.3,13.7-4.3,20.7-6.1a217.3,217.3,0,0,1,21.3-4.4,203.5,203.5,0,0,1,43.4-2.7,173.6,173.6,0,0,1,21.7,2.5c3.6.6,7.2,1.4,10.7,2.2l5.2,1.3,5.2,1.4c6.9,2,13.7,4.2,20.4,6.7s13.3,5.4,19.7,8.6a235.9,235.9,0,0,1,36.4,22.2L653,254a322,322,0,0,0-38.1-17.9c-6.5-2.4-13.1-4.7-19.8-6.6s-13.4-3.6-20.1-5l-5.1-1-5.2-1-5.1-.8-5-.6a176.2,176.2,0,0,0-20.5-1.2l-10.2.3c-3.4.2-6.8.4-10.2.8a198.9,198.9,0,0,0-20.3,3.1c-26.9,5.3-53,15-79,25.4l-39.1,15.9c-13.1,5.4-26.3,10.7-39.7,15.5a361.4,361.4,0,0,1-41.2,12.2,400.1,400.1,0,0,1-42.2,7.3c-28.4,3.2-56.9,3.3-85.3,1.4s-56.3-6.1-84.1-11.2c-13.9-2.6-27.8-5.4-41.6-8.4S13.7,275.9,0,272.6Z"/><path class="cls-3" d="M650.7,277.8c-8.4-.4-16.7-.6-24.7-.2-4,.2-8,.6-11.8,1.1a110.3,110.3,0,0,0-11.5,1.9,141.2,141.2,0,0,0-21.5,6.7,181.6,181.6,0,0,0-20.4,9.8c-13.4,7.4-26.6,16.1-40.7,24.9-7,4.3-14.2,8.6-21.7,12.7l-11.3,5.9-5.7,2.8-5.8,2.7a395.3,395.3,0,0,1-47.5,18.4,305.3,305.3,0,0,1-49.9,11.3,257.1,257.1,0,0,1-51.1,2.3l-6.3-.5c-2.1-.1-4.2-.4-6.3-.7-4.2-.4-8.4-1.1-12.6-1.8a160.2,160.2,0,0,1-24.5-6.3c8.4-.9,16.6-1.8,24.7-3,2-.2,4-.6,6-.9l6.1-1,2.9-.5,3-.5,6-1.2q11.8-2.4,23.4-5.4c7.7-2,15.3-4.2,22.9-6.5q22.7-7.2,44.6-16.2c14.7-6,29.1-12.6,43.4-19.5l5.3-2.7,5.3-2.7,10.6-5.4,21.1-11.4c7.2-3.9,14.5-7.8,22.2-11.5a223.3,223.3,0,0,1,23.9-10.3,149.6,149.6,0,0,1,25.9-6.9,115.7,115.7,0,0,1,26.9-1.3,113.3,113.3,0,0,1,13.2,1.8c4.3.9,8.6,2,12.7,3.3A106.7,106.7,0,0,1,650.7,277.8Z"/><path d="M650.2,278a102.2,102.2,0,0,0-48.3-13.6c-16.8-.4-33.5,3.5-49.2,9.4s-30.8,13.9-45.4,22.4-29.2,17.7-44.1,26.4-30.3,16.9-46.1,24.1a274.2,274.2,0,0,1-49.3,17.2,250.8,250.8,0,0,1-51.8,7.4,203.4,203.4,0,0,1-51.7-4.8l.2-1.3a343.1,343.1,0,0,0,50.8-3,343.8,343.8,0,0,0,49.1-10.7c16.1-4.8,32-10.5,47.6-16.7a469.2,469.2,0,0,0,46.1-21.4c14.9-8,29.7-16.7,44.9-24.8s31-15.5,47.6-21a154.2,154.2,0,0,1,25.4-6.1,114,114,0,0,1,26.1-1.1,100.4,100.4,0,0,1,25.5,5.1,117,117,0,0,1,23.3,11.4Z"/><path class="cls-4" d="M43.2,328.5c11.8,5.6,23.5,11.2,35.3,16.2l8.9,3.7c3,1.1,5.9,2.4,8.9,3.4,5.9,2.3,11.9,4.4,17.9,6.2s12,3.7,18,5.2,12.1,2.8,18,3.8,12.1,1.9,18.2,2.5l9.1.8H186c5.8-.1,12.1-.5,19.2-.6,3.6,0,7.3.1,11.1.4,2,.2,3.9.4,6.1.8l3,.5,3,.7a139.9,139.9,0,0,1,20.8,7.1l8.7,3.6,4,1.5,2,.6,2,.7a294.7,294.7,0,0,0,70.8,13.1c47.8,2.7,96.6-6.9,141.5-26.7,5.5-2.4,11-5.1,16.4-8s10.8-5.9,16.1-9.1c10.7-6.5,21.3-13.5,32.1-20.8s21.9-14.5,34-20.5a101.3,101.3,0,0,1,19-7.1,58.6,58.6,0,0,1,19.9-1.6,72,72,0,0,0-17.7,7.1,116.8,116.8,0,0,0-15.2,10.9c-4.8,4-9.5,8.3-14,12.8L555,349.4c-9.2,9.1-18.8,18.3-29.2,26.8a249.3,249.3,0,0,1-33.3,23.6,286.8,286.8,0,0,1-75.9,30.8,276.7,276.7,0,0,1-82.2,7.7,275,275,0,0,1-80.8-17.2l-2.6-1-2.6-1.1-4.9-2.1-9-4.4a141.6,141.6,0,0,0-15.4-6.7l-1.7-.5-1.7-.5-3.5-.8c-2.6-.5-5.3-.8-8.2-1.1-5.9-.5-12.5-.7-19.6-1.5l-5.5-.6-2.8-.5h-1.3l-1.2-.3c-3.4-.6-6.7-1.3-10-2.1-6.7-1.6-13.3-3.4-19.8-5.6l-4.9-1.7-4.8-1.8c-3.2-1.2-6.3-2.6-9.4-3.9-6.1-2.8-12.2-5.7-18.1-8.9a269.9,269.9,0,0,1-33.5-21.6A283,283,0,0,1,43.2,328.5Z"/><path d="M43.2,328.4A183,183,0,0,0,60,336.3c5.7,2.5,11.6,4.6,17.4,6.7,11.8,4,23.7,7.5,35.7,10.7l36.1,9.1,9,2.1,9,1.7c6.1,1,12.1,1.9,18.2,2.5a156.5,156.5,0,0,0,18.2.7,156.4,156.4,0,0,1,19.2.6,55.6,55.6,0,0,1,9.9,1.8,93.4,93.4,0,0,1,9.4,2.9c6.1,2.2,11.8,4.7,17.5,6.9,2.8,1.2,5.6,2.1,8.4,3l8.8,2.7c5.9,1.6,11.8,3.1,17.8,4.4a276.1,276.1,0,0,0,36.1,5.5c48.6,4.2,98.1-4.3,143.3-23.4,22.6-9.3,43.4-22.4,63.5-37.2,5-3.6,10-7.3,15.2-10.9a185.2,185.2,0,0,1,15.8-10.2,92.2,92.2,0,0,1,17.3-7.7,62.3,62.3,0,0,1,18.6-2.9,71,71,0,0,0-9.2,1.7,63.8,63.8,0,0,0-8.7,3,84.4,84.4,0,0,0-16.1,8.9c-10.2,6.9-19.5,15.1-29.2,23a376.1,376.1,0,0,1-30.1,22.7,244.6,244.6,0,0,1-33.2,18.5,291.7,291.7,0,0,1-148.2,26.4,281.5,281.5,0,0,1-37.7-5.9c-6.2-1.5-12.3-3.1-18.4-4.9l-9.1-2.9c-3-1-6.1-2.2-9.1-3.4-5.9-2.4-11.5-5-17.1-7.2a67.5,67.5,0,0,0-8.3-2.8,59.8,59.8,0,0,0-8.4-1.8,176,176,0,0,0-18.1-1.1,156.7,156.7,0,0,1-19.2-1.5c-6.2-.9-12.5-1.9-18.7-3.3-3.1-.6-6.1-1.4-9.2-2.2l-9.1-2.6c-11.9-3.6-23.9-7-35.8-11-5.9-2-11.9-4-17.7-6.2s-11.7-4.4-17.5-6.9A200.6,200.6,0,0,1,43.2,328.4Z"/></g></g></svg>