<svg xmlns="http://www.w3.org/2000/svg" xmlns:xlink="http://www.w3.org/1999/xlink" viewBox="0 0 455.36 576.25">
  <defs>
    <style>
      .cls-1 {
        fill: #fff;
      }

      .cls-2 {
        filter: url(#shadow-filter);
      }

      .cls-3 {
        fill: #ff7c1a;
      }
    </style>
    <filter id="shadow-filter" x="-50%" y="-50%" width="200%" height="200%" name="shadow-filter">
      <feOffset result="shadowOffsetOuter1" dx="10" dy="10" in="SourceAlpha"/>
      <feGaussianBlur result="shadowBlurOuter1" stdDeviation="14" in="shadowOffsetOuter1"/>
      <feColorMatrix result="shadowMatrixOuter1" values="0 0 0 0 0 0 0 0 0 0 0 0 0 0 0 0 0 0 0.5 0" in="shadowBlurOuter1"/>
      <feMerge>
        <feMergeNode in="shadowMatrixOuter1"/>
        <feMergeNode in="SourceGraphic"/>
      </feMerge>
    </filter>
  </defs>
  <g id="Sports_Markers_copy" data-name="Sports Markers copy">
    <g class="cls-2">
      <path class="cls-3" d="M251.39,554.5a7,7,0,0,1-4.61-1.73,693.22,693.22,0,0,1-85-92.86c-56.66-74.37-85.39-143.77-85.39-206.27a175,175,0,1,1,350,0c0,62.51-28.73,131.91-85.4,206.28a693.34,693.34,0,0,1-85,92.88A7,7,0,0,1,251.39,554.5Z" transform="translate(-24.5 -27.42)"/>
    </g>
  </g>
  <g id="Layer_7" data-name="Layer 7">
    <path class="cls-1" d="M250.35,397.17c-80.37,0-145.75-65.38-145.75-145.74,0-3.2.23-6.32.44-9.34l.08-1.09c5.37-75.59,68.93-135,144.7-135.29l.53,0c80.36,0,145.74,65.38,145.74,145.74S330.71,397.17,250.35,397.17Zm.16-276-.66,0A130.7,130.7,0,0,0,121.74,231.89l-1.31,11.48v0c-.2,2.63-.39,5.34-.39,8,0,71.86,58.45,130.31,130.3,130.31A130.49,130.49,0,0,0,379.28,270.24l1.15-11.42c.15-2.64.22-5.09.22-7.39C380.65,179.65,322.28,121.2,250.51,121.12Z" transform="translate(-24.5 -27.42)"/>
  </g>
  <g id="Layer_6" data-name="Layer 6">
    <path class="cls-1" d="M350.59,241.86l-25-51.8a38.07,38.07,0,0,0-16.37-17l-2.05-4.27A25.81,25.81,0,0,0,258.13,180v8.57a37.67,37.67,0,0,0-3.82,10.68h-7.93a37.35,37.35,0,0,0-3.81-10.68V180a25.81,25.81,0,0,0-49-11.21l-2.06,4.27a38.07,38.07,0,0,0-16.37,17l-25,51.8A52.13,52.13,0,1,0,247,271.61h6.74a52.14,52.14,0,1,0,96.87-29.75Zm-44.83,68.39a41.78,41.78,0,1,1,41.78-41.78A41.83,41.83,0,0,1,305.76,310.25ZM283.93,164.6a15.43,15.43,0,0,1,10.53,4.16q-1.48-.12-3-.12A37.55,37.55,0,0,0,269,176.05a15.5,15.5,0,0,1,14.92-11.45Zm21.83,51.73a52.17,52.17,0,0,0-41.78,21V206.51a27.51,27.51,0,0,1,52.29-11.95l13.27,27.51A51.64,51.64,0,0,0,305.76,216.33Zm-58.68,44.92v-51.6h6.54v51.6Zm-40.85-92.49A15.43,15.43,0,0,1,231.68,176a37.61,37.61,0,0,0-22.48-7.4Q207.72,168.64,206.23,168.76Zm30.48,37.75v30.76a52,52,0,0,0-8-8.52,47.41,47.41,0,0,0-12.33-7.82,52.19,52.19,0,0,0-45.22,1.14l13.26-27.51a27.51,27.51,0,0,1,52.29,11.95Zm-41.78,20.18a41.53,41.53,0,0,1,17.22,3.7,35,35,0,0,1,9.83,6.24,41.78,41.78,0,1,1-27-9.94Zm0,6.1a35.68,35.68,0,0,0,0,71.36h0a35.68,35.68,0,1,0,0-71.36Zm0,61.61a25.93,25.93,0,1,1,25.93-25.93A26,26,0,0,1,194.93,294.4Zm110.83-61.61a35.68,35.68,0,0,0-13.44,68.72,33.52,33.52,0,0,0,13.51,2.64,35.68,35.68,0,0,0-.07-71.36Zm0,9.75a25.93,25.93,0,0,1,.07,51.86,30.88,30.88,0,0,1-9.84-1.92,25.92,25.92,0,0,1,9.77-49.94Z" transform="translate(-24.5 -27.42)"/>
  </g>
</svg>
