<svg xmlns="http://www.w3.org/2000/svg" viewBox="0 0 455.36 480">
  <defs>
    <style>
      .cls-1 {
        fill: #fff;
      }

      .cls-2 {
        fill: #1f2937;
      }
    </style>
  </defs>
  <g id="Amenities">
    <path class="cls-2" d="M338.33,330.91a11,11,0,0,0,11-11V298a33,33,0,0,0-33-33h-7.13L320,229.58a5.44,5.44,0,0,0,.15-.54,33,33,0,0,0-32-40.95H272.41a11,11,0,0,1-11-11v-7.36c13.06-15.94,22-40.28,22-58.56a54.93,54.93,0,1,0-109.86,0c0,18.28,8.9,42.62,22,58.56v7.36a11,11,0,0,1-11,11h-15.8a32.94,32.94,0,0,0-32,40.95,5.44,5.44,0,0,0,.15.54L147.71,265h-7.13a33,33,0,0,0-33,33v22a11,11,0,0,0,11,11h11v78.37h-11c-6.07,0-11,1.42-11,7.48s4.92,7,11,7H338.33c6.07,0,11-.92,11-7s-4.92-7.48-11-7.48h-11V330.91ZM187.51,111.18a41,41,0,1,1,81.92,0c0,11.83-4.89,27.75-12.46,40.54-8.54,14.44-18.66,22.39-28.5,22.39s-20-8-28.5-22.39C192.4,138.93,187.51,123,187.51,111.18Zm-33.63,98a18.88,18.88,0,0,1,14.84-7.14h15.8c11.22,0,21.62-5.57,24.58-16.4l1.83-4.53q17.53,10.62,35.08,0l1.83,4.53c3,10.83,13.36,16.4,24.57,16.4h15.81a19,19,0,0,1,18.51,23.2l-.06.28-12.09,39.59H162.36l-12.09-39.59-.06-.28A18.87,18.87,0,0,1,153.88,209.2ZM313.37,409.28H143.56V330.77H313.37ZM121.59,316.94V298a19,19,0,0,1,19-19H316.36a19,19,0,0,1,19,19v19ZM254.47,386h-52a6.91,6.91,0,0,1-6.91-6.92h0a6.91,6.91,0,0,1,6.91-6.92h52a6.92,6.92,0,0,1,6.92,6.92h0A6.92,6.92,0,0,1,254.47,386Z" transform="translate(-1.58)"/>
  </g>
</svg>
