<svg xmlns="http://www.w3.org/2000/svg" xmlns:xlink="http://www.w3.org/1999/xlink" viewBox="0 0 455.36 576.25">
  <defs>
    <style>
      .cls-1 {
        fill: #fff;
      }

      .cls-2 {
        filter: url(#shadow-filter);
      }

      .cls-3 {
        fill: #ff7c1a;
      }
    </style>
    <filter id="shadow-filter" x="-50%" y="-50%" width="200%" height="200%" name="shadow-filter">
      <feOffset result="shadowOffsetOuter1" dx="10" dy="10" in="SourceAlpha"/>
      <feGaussianBlur result="shadowBlurOuter1" stdDeviation="14" in="shadowOffsetOuter1"/>
      <feColorMatrix result="shadowMatrixOuter1" values="0 0 0 0 0 0 0 0 0 0 0 0 0 0 0 0 0 0 0.5 0" in="shadowBlurOuter1"/>
      <feMerge>
        <feMergeNode in="shadowMatrixOuter1"/>
        <feMergeNode in="SourceGraphic"/>
      </feMerge>
    </filter>
  </defs>
  <g id="Sports_Markers_copy" data-name="Sports Markers copy">
    <g class="cls-2">
      <path class="cls-3" d="M251.39,554.5a7,7,0,0,1-4.61-1.73,693.22,693.22,0,0,1-85-92.86c-56.66-74.37-85.39-143.77-85.39-206.27a175,175,0,1,1,350,0c0,62.51-28.73,131.91-85.4,206.28a693.34,693.34,0,0,1-85,92.88A7,7,0,0,1,251.39,554.5Z" transform="translate(-24.5 -27.42)"/>
    </g>
  </g>
  <g id="Layer_7" data-name="Layer 7">
    <path class="cls-1" d="M250.35,397.17c-80.37,0-145.75-65.38-145.75-145.74,0-3.2.23-6.32.44-9.34l.08-1.09c5.37-75.59,68.93-135,144.7-135.29l.53,0c80.36,0,145.74,65.38,145.74,145.74S330.71,397.17,250.35,397.17Zm.16-276-.66,0A130.7,130.7,0,0,0,121.74,231.89l-1.31,11.48v0c-.2,2.63-.39,5.34-.39,8,0,71.86,58.45,130.31,130.3,130.31A130.49,130.49,0,0,0,379.28,270.24l1.15-11.42c.15-2.64.22-5.09.22-7.39C380.65,179.65,322.28,121.2,250.51,121.12Z" transform="translate(-24.5 -27.42)"/>
  </g>
  <g id="Layer_6" data-name="Layer 6">
    <path class="cls-1" d="M250.5,106c-80.26,0-145.56,65.3-145.56,145.56s65.3,145.57,145.56,145.57,145.56-65.3,145.56-145.57S330.76,106,250.5,106ZM333.39,344.4c-20.84,0-49.81-10.21-86.13-30.34-21.08-14.23-41.39-21.15-62.08-21.15a99.76,99.76,0,0,0-15.13,1.18,112.58,112.58,0,0,1,19-1.63c16.45,0,32.62,3.57,49.43,10.92,46.31,23.85,79.11,35.44,100.3,35.44A45.94,45.94,0,0,0,351,337.3c-1.65,1.92-3.36,3.81-5.12,5.65A51,51,0,0,1,333.39,344.4Zm-80.94-87.11v-.11a3.61,3.61,0,0,1,2-3.24,28.35,28.35,0,0,0,13.69-14.82,2.47,2.47,0,0,1,2.29-1.56,2.35,2.35,0,0,1,1.23.34c10.77,6.37,19.58,9.6,26.18,9.6,5,0,7.77-1.88,9.23-3.46a9.88,9.88,0,0,0,2.53-7.37,4.49,4.49,0,0,0-4.45-4.14h-.22c-.71,0-1.54.05-2.4.05-5.79,0-9.33-.71-9.91-1.19a1.38,1.38,0,0,1-.17-.9,4.89,4.89,0,0,1,1.23-3c1.29-1,4.55-2.4,8.92-3.15a39.22,39.22,0,0,1,6.61-.55c1,0,2,0,3,.11A35.19,35.19,0,0,1,335.55,235c5.43,5.8,12.37,9,19.54,9a21.15,21.15,0,0,0,15-5.93,4.81,4.81,0,0,0,1.31-4.13,7.31,7.31,0,0,0-3.48-5.22,6.76,6.76,0,0,1-2.37-3.2,6.79,6.79,0,0,0-5.34-4.16c-.62-.07-.73-.28-.77-.35-.36-.71,0-2.92,2.13-6.85a4.5,4.5,0,0,0-4-6.67h-8.31a1.48,1.48,0,0,1-1.3-.74,1.51,1.51,0,0,1,0-1.5l2.77-5.11a4.4,4.4,0,0,0,.34-3.37,4.57,4.57,0,0,0-2.26-2.73c-2.56-1.35-4.38-4.6-5.46-7.1a6.64,6.64,0,0,0-6.09-4,6.86,6.86,0,0,0-1.28.13,13.42,13.42,0,0,1-2.51.29c-1.93,0-2-.66-2-.94a4.55,4.55,0,0,0-4.5-4.16h-.25c-1.33.08-2.63.11-3.85.11-10.23,0-16.32-2.56-17.14-7.22a4.76,4.76,0,0,0-4.56-3.9c-4.11-.13-9.05-1.18-9.26-5.48a4.52,4.52,0,0,0-3.47-4.11,21.54,21.54,0,0,0-5.12-.63,19.83,19.83,0,0,0-5.28.71,3.85,3.85,0,0,1-1,.14,3.65,3.65,0,0,1-3.48-2.53c-2.85-8.82-11.26-9.77-14.74-9.77l-1,0a1.58,1.58,0,0,1-.58-.12A36.16,36.16,0,0,0,243.75,143,49.78,49.78,0,0,0,229,145.37a4.3,4.3,0,0,0-2.16,1.52c-2,2.67-5.69,4-11.09,4a39.5,39.5,0,0,1-6-.5,5.62,5.62,0,0,0-.92-.08,6,6,0,0,0-5.55,3.8c-1.55,3.77-5.3,4.56-8.17,4.56a15.7,15.7,0,0,1-2.76-.24.26.26,0,0,1-.11,0,7.39,7.39,0,0,0-3.67-1c-5.23,0-10,5.39-13.11,9.91a4.53,4.53,0,0,0,.92,6.12c7,5.55,6.55,7.26,6.55,7.27-.08.22-1,.84-4,.84a30.15,30.15,0,0,1-3.25-.19c-.25,0-.51,0-.76,0a6.7,6.7,0,0,0-5.15,2.32c-1.93,2.29-5.6,3.35-7.62,3.78a4.52,4.52,0,0,0-3.53,3.9c-.56,5,.17,8.65,2.18,10.9a7,7,0,0,0,3.7,2.17,21.63,21.63,0,0,0-1.64,5.11,2.31,2.31,0,0,1-2.32,2.05,3.47,3.47,0,0,1-1.29-.27,6.16,6.16,0,0,0-2.39-.51c-2.06,0-4.9,1.2-6.69,6.88a1.56,1.56,0,0,1-1.49,1.11,1.52,1.52,0,0,1-.87-.27c-3.63-2.39-6.85-3.61-9.58-3.61-3.95,0-8.66,2.52-8.66,14.48,0,13.75,2.48,20.72,7.38,20.72a4.23,4.23,0,0,0,.63-.05l.24,0a1.29,1.29,0,0,1,1,.42,10.5,10.5,0,0,0,4.45,3.41,6.34,6.34,0,0,0,2.24.4,6.65,6.65,0,0,0,6.19-4.35c2-5.45,8-6.6,12.57-6.6a26.6,26.6,0,0,1,3.08.18,1.39,1.39,0,0,1,.66.26c11.81,8,21.39,12.07,28.5,12.07,6.45,0,9.34-3.35,10.49-5.34a1.71,1.71,0,0,1,1.48-.83h.12c2.64.17,5.94.25,9.81.25,4.57,0,9.13-.12,12.16-.22h.12a3.64,3.64,0,0,1,3.64,3.6l-1.66,24.1c-64.39,1-95.11,16.8-104.89,23.16a131,131,0,0,1-9.4-48.94c0-72.87,59.29-132.15,132.16-132.15S382.66,178.73,382.66,251.6a130.65,130.65,0,0,1-12.34,55.75c-13.7-7.34-56.7-27.48-119.47-29.79Z" transform="translate(-24.5 -27.42)"/>
  </g>
</svg>
