<svg xmlns="http://www.w3.org/2000/svg" xmlns:xlink="http://www.w3.org/1999/xlink" viewBox="0 0 455.36 576.25">
  <defs>
    <style>
      .cls-1 {
        fill: #fff;
      }

      .cls-2 {
        filter: url(#shadow-filter);
      }

      .cls-3 {
        fill: #ff7c1a;
      }
    </style>
    <filter id="shadow-filter" x="-50%" y="-50%" width="200%" height="200%" name="shadow-filter">
      <feOffset result="shadowOffsetOuter1" dx="10" dy="10" in="SourceAlpha"/>
      <feGaussianBlur result="shadowBlurOuter1" stdDeviation="14" in="shadowOffsetOuter1"/>
      <feColorMatrix result="shadowMatrixOuter1" values="0 0 0 0 0 0 0 0 0 0 0 0 0 0 0 0 0 0 0.5 0" in="shadowBlurOuter1"/>
      <feMerge>
        <feMergeNode in="shadowMatrixOuter1"/>
        <feMergeNode in="SourceGraphic"/>
      </feMerge>
    </filter>
  </defs>
  <g id="Sports_Markers_copy" data-name="Sports Markers copy">
    <g class="cls-2">
      <path class="cls-3" d="M251.39,554.5a7,7,0,0,1-4.61-1.73,693.22,693.22,0,0,1-85-92.86c-56.66-74.37-85.39-143.77-85.39-206.27a175,175,0,1,1,350,0c0,62.51-28.73,131.91-85.4,206.28a693.34,693.34,0,0,1-85,92.88A7,7,0,0,1,251.39,554.5Z" transform="translate(-24.5 -27.42)"/>
    </g>
  </g>
  <g id="Layer_7" data-name="Layer 7">
    <path class="cls-1" d="M250.35,397.17c-80.37,0-145.75-65.38-145.75-145.74,0-3.2.23-6.32.44-9.34l.08-1.09c5.37-75.59,68.93-135,144.7-135.29l.53,0c80.36,0,145.74,65.38,145.74,145.74S330.71,397.17,250.35,397.17Zm.16-276-.66,0A130.7,130.7,0,0,0,121.74,231.89l-1.31,11.48v0c-.2,2.63-.39,5.34-.39,8,0,71.86,58.45,130.31,130.3,130.31A130.49,130.49,0,0,0,379.28,270.24l1.15-11.42c.15-2.64.22-5.09.22-7.39C380.65,179.65,322.28,121.2,250.51,121.12Z" transform="translate(-24.5 -27.42)"/>
  </g>
  <g id="Layer_6" data-name="Layer 6">
    <path class="cls-1" d="M330.35,271H316.9l-6.07-4.84,7.21-29a21.2,21.2,0,0,0-16-25.31l-6.47-1.35,10.68-47.42c2,.45,2.18.48,2.76.57l1.54.27a7.89,7.89,0,0,0,1.76.21c2.73,0,4.73-1.66,5.5-4.61.84-3.76-1.4-7-5.45-7.93l-17.58-4.13a9.16,9.16,0,0,0-2-.23,6.46,6.46,0,0,0-6.64,5,5.51,5.51,0,0,0,1.28,5.15,8.39,8.39,0,0,0,4.42,2.31l3.15.71-10.69,47.45-6-1.34a21.81,21.81,0,0,0-4.69-.52,21,21,0,0,0-20.62,16.5l-6.85,28.89a17.58,17.58,0,0,1-6.39,1.63c3.28-16.46,7.78-38.83,9-44.59a6.6,6.6,0,0,0,4-1.79,5.89,5.89,0,0,0,1.75-4.23,6,6,0,0,0-4.58-5.84c-2.13-19.65-19-35.35-38.37-35.35s-36.27,15.73-38.37,35.4a6.2,6.2,0,0,0-4.57,5.93,5.51,5.51,0,0,0,1.9,4.2,6.92,6.92,0,0,0,3.5,1.58L182,257.81c-3.8,4.71-8.68,9.85-11.08,12.38l-.76.79h-7.82a7.24,7.24,0,0,0-7.22,7.23v42.18a7.24,7.24,0,0,0,7.22,7.23h168a7.24,7.24,0,0,0,7.23-7.23V278.21A7.24,7.24,0,0,0,330.35,271ZM239.29,197.2h-55.6a27.92,27.92,0,0,1,55.6,0Zm-.91,10.29-8.4,42-2.15-1.23-1.65-1c-4.36-2.56-9.3-5.46-16.06-5.46a26.48,26.48,0,0,0-4.93.49,25.17,25.17,0,0,0-11.49,5.55l-2.42,2.06-6.88-42.43Zm-45.64,53.39.39-.43c3.24-3.53,8.14-8.87,15.84-8.87,3.3,0,6.78,2,10.81,4.34,5.18,3,11.05,6.36,18.33,6.36a26.54,26.54,0,0,0,12.58-3.35c.92-.47,1.88-1,2.86-1.5,5.65-3,12.67-6.75,17.66-6.75a14.42,14.42,0,0,1,9.68,4L301.07,271H183.56C186.46,267.77,190.71,263.08,192.74,260.88Zm80.83-44.24a10.65,10.65,0,0,1,2.32.26l23.8,5.37a10.51,10.51,0,0,1,7.94,12.55l-5.52,24.59-14.86-12.1a25.16,25.16,0,0,0-25.08-4.79l-3.07,1.1,4.24-18.78A10.43,10.43,0,0,1,273.57,216.64ZM165.79,317v-35.3H326.91V317Z" transform="translate(-24.5 -27.42)"/>
  </g>
</svg>
