<svg xmlns="http://www.w3.org/2000/svg" viewBox="0 0 455.36 480">
  <defs>
    <style>
      .cls-1 {
        fill: #fff;
      }

      .cls-2 {
        fill: #1f2937;
      }
    </style>
  </defs>
  <g id="Amenities">
    <path class="cls-2" d="M396.68,311.2H368.34L353.08,299l15-60.42a38.43,38.43,0,0,0-29-45.89l-16.93-3.54L345.34,86.35c11.11,2.51,6.47,1.44,12.52,2.56,5.33,1.23,8.52-1.13,9.73-5.8,1.27-5.64-2.27-9.82-7.91-11.09l-35.17-8.26c-5.64-1.27-11.24.85-12.51,6.49s2.74,8.88,8.38,10.15l10.22,2.3L307.43,185.51l-16-3.54a38.37,38.37,0,0,0-45.89,29L231.4,270.63a38.51,38.51,0,0,1-21.14,4.48S228.94,181.3,230.07,178c14.16,1,13.54-16.56,1.73-16.19-2.47-38.2-34.32-70.41-73.13-70.41S88,123.56,85.55,161.75c-10.78,0-13.26,16.2,1.4,16.2l16.91,104C93.51,295,78.14,310.5,77.68,311.2H60.26a10.47,10.47,0,0,0-10.47,10.47v84.45a10.47,10.47,0,0,0,10.47,10.47H396.68a10.46,10.46,0,0,0,10.46-10.47V321.67A10.46,10.46,0,0,0,396.68,311.2Zm-138.1-97.29A25,25,0,0,1,288.5,195l47.67,10.74a25.06,25.06,0,0,1,18.91,29.92l-12.47,55.56-34.88-28.43A46.32,46.32,0,0,0,261.5,254l-13,4.66ZM118.17,120.5a59.92,59.92,0,0,1,100.17,38.67l.39,4.28H98.61l.39-4.28A59.84,59.84,0,0,1,118.17,120.5ZM99.71,176.06H217.4l-18.86,94.29-9.13-5.22c-1.09-.62-2.2-1.27-3.34-1.94-8.7-5.11-17.69-10.39-30.14-10.39a47.39,47.39,0,0,0-9.11.92,46.26,46.26,0,0,0-21.17,10.22l-10.25,8.74Zm18.47,108.19c6.57-7.12,17.57-19.9,35.45-19.9,21.8,0,43.16,35.43,81.7,15.16,13.17-6.83,30.17-17,42.91-17,7.88,0,15.25,3,21.91,8.85l49.21,39.81H93.73S111.61,291.37,118.18,284.25Zm275.61,119H63.15V324.56H393.79Z" transform="translate(-1.58)"/>
  </g>
</svg>
