<svg xmlns="http://www.w3.org/2000/svg" viewBox="0 0 455.36 480">
  <defs>
    <style>
      .cls-1 {
        fill: #fff;
      }

      .cls-2 {
        fill: #1f2937;
      }
    </style>
  </defs>
  <g id="Amenities">
    <path class="cls-2" d="M440.11,214.71H353.63A15.28,15.28,0,0,0,338.38,230v19.85h-9.52l-.24-.94h-.06L310.62,178.7h50.17a6.63,6.63,0,0,0,6.64-6.63V146.52a15.28,15.28,0,0,0-15.25-15.25H110.84a15.3,15.3,0,0,0-15.25,15.25v25.55a6.63,6.63,0,0,0,6.63,6.63H152.4l-16.29,63.7h0l-1.65,6.47h-.08l-.25.94H118.58V230a15.29,15.29,0,0,0-15.25-15.25H16.83A15.29,15.29,0,0,0,1.58,230v23.3a8,8,0,0,0,8,8H85.13c.22,0,.43,0,.65,0H132.9l-20.17,78.86a6.66,6.66,0,0,0,6.35,8.55h46.11a6.65,6.65,0,0,0,6.26-4.42l29.72-83h59.77l29.62,82.76a6.65,6.65,0,0,0,6.33,4.65h48.82a6.65,6.65,0,0,0,6.43-8.29l-20.23-79.12h41.93c.22,0,.43,0,.64,0h72.85a8,8,0,0,0,8-8V230A15.28,15.28,0,0,0,440.11,214.71ZM206.36,248.87c1.73-4.8,3-8.21,6.86-12.16a25.8,25.8,0,0,1,30.25-4.64c7.58,4,10.45,9.27,13.16,16.8Zm-97.48-83.46V146.52a2,2,0,0,1,2-2H352.18a2,2,0,0,1,2,2v18.89Zm188,13.29,17.94,70.17H270.73c-4.45-12.43-7.87-21.58-21.13-28.54a38.82,38.82,0,0,0-29.27-2.83c-5.7,1.33-12.49,5.8-16.56,9.92-6.73,6.81-8.49,13-11.5,21.45h-44.1l17.94-70.17Zm-282,70.17V230a2,2,0,0,1,2-1.94h86.5a2,2,0,0,1,1.93,1.94v18.91Zm145.65,86.57H127.65l18.94-74.12h40.46Zm176.62,0H301.56l-26.5-74.12H318.2Zm104.93-86.57h-90.4V230a2,2,0,0,1,2-1.94h86.48a2,2,0,0,1,2,1.94Z" transform="translate(-1.58)"/>
  </g>
</svg>
