<svg xmlns="http://www.w3.org/2000/svg" viewBox="0 0 456.94 480">
  <defs>
    <style>
      .cls-1 {
        fill: #fff;
      }

      .cls-2 {
        fill: #1f2937;
      }
    </style>
  </defs>
  <g id="Amenities">
    <path class="cls-2" d="M454.33,336.55h0a34.31,34.31,0,0,0-44.6-19.07l-5.28,2.12-4-2a154.6,154.6,0,0,0,31.11-93.17C431.56,138.68,361.84,69,276.14,69c-69.81,0-129,46.27-148.56,109.75l-27.36-13.91A48.39,48.39,0,0,0,60.27,163a51.52,51.52,0,0,0-28.34,27.71l-5.59,13.1a51.33,51.33,0,0,0-.45,39.63,48.33,48.33,0,0,0,26,26.52A61.29,61.29,0,0,0,.21,325.93l0,.45c-.09,1.25-.18,2.54-.18,3.91a61,61,0,1,0,106-41.22l35.28,12.38a155.31,155.31,0,0,0,192.1,67.42l43.51,15.26,2.21,5.51a34,34,0,0,0,44.29,18.93,36.34,36.34,0,0,0,20-19.56c3.18-7.43,7.5-17.54,10.64-24.9A35.74,35.74,0,0,0,454.33,336.55Zm-56.62-35.32-22.53,3.47-46.81-23.82L348,215.34l38.78-12.93,33,29.36A142.87,142.87,0,0,1,397.71,301.23Zm2.5-149.63a142.84,142.84,0,0,1,19.54,64.06l-25.18-22.38ZM334.05,92.69a144.65,144.65,0,0,1,56.09,44l-7.36,54.42L344.08,204l-22.92-15.27a6,6,0,0,0-6.64,10l21.67,14.44-18.66,62.21-89.06-45.31-5.18-15.56L276,173l21.86,14.58a6,6,0,1,0,6.64-10l-22.81-15.21V116.94l52.12-24C333.89,92.84,334,92.74,334.05,92.69ZM276.14,80.48a143.4,143.4,0,0,1,42.23,6.33l-42.7,19.7L233.35,87A143.11,143.11,0,0,1,276.14,80.48ZM217.68,92.94l52,24v45.78l-54.63,43-46.5-14.67-7.21-53.35A144.78,144.78,0,0,1,217.68,92.94Zm-4.4,129.39-23.75-12.09,22,7Zm-62-69.41,5.45,40.36-.21.19-18.51-9.42A143.17,143.17,0,0,1,151.32,152.92ZM35.75,239.5a41.45,41.45,0,0,1,.36-31.5l5.6-13.09a40.94,40.94,0,0,1,22.52-22,37.49,37.49,0,0,1,28.89.33c.77.33,1.54.68,2.29,1.06l29.33,14.93h0l6.66,3.39,22.77,11.58,5.32,2.71h0l64.4,32.76,9.37,4.77h0l68.64,34.92h0l27.93,14.21-23.36,54.62-82-28.76h0l-45.78-16.07h0l-28.9-10.14h0l-4.94-1.74-86.6-30.39c-.79-.27-1.58-.58-2.35-.91A37.47,37.47,0,0,1,35.75,239.5Zm77.58,92-.91.07c-21.5,1.74-39.46,15.06-46.88,34.76a4.36,4.36,0,0,0,2.54,5.6,4.5,4.5,0,0,0,1.53.28,4.36,4.36,0,0,0,4.07-2.82c6.13-16.28,19.73-26.83,37.31-28.94l1.4-.17-.31,1.38A52.32,52.32,0,0,1,8.69,330.29c0-.22,0-.43,0-.65l0-.88.87-.08c20.1-2,36-13.15,44.7-31.41a4.34,4.34,0,0,0-3.92-6.22,4.38,4.38,0,0,0-3.93,2.47c-7,14.55-19.45,23.85-35.19,26.19l-1.46.22.34-1.44A52.74,52.74,0,0,1,60.81,278h.33a52.41,52.41,0,0,1,52.2,52.32Zm49.9-18.07,19.09,2.44,32.92,11.55L234.1,362A144.34,144.34,0,0,1,163.23,313.43Zm146.65,50.82a142.92,142.92,0,0,1-60,1.58h0l-17.72-32.49,79.42,27.87Zm65.15,8-46.89-16.46h0l-8.44-3-3.34-1.17h0l16.82-39.34h0l.34-.79,5.65-13.2h0l18,9.16h0l18.28,9.3h0L389.69,324l3.94,2h0l1,.49Zm69.21-12.29L433.6,384.83a26.17,26.17,0,0,1-14.22,13.88,23.39,23.39,0,0,1-30.45-13l-4-10h0l3.92-9.15,15.09-35.3h0l9.76-3.91a23.67,23.67,0,0,1,30.77,13.16A25.2,25.2,0,0,1,444.24,359.94Z"/>
  </g>
</svg>
