<svg xmlns="http://www.w3.org/2000/svg" xmlns:xlink="http://www.w3.org/1999/xlink" viewBox="0 0 455.36 576.25">
  <defs>
    <style>
      .cls-1 {
        fill: #fff;
      }

      .cls-2 {
        filter: url(#shadow-filter);
      }

      .cls-3 {
        fill: #ff7c1a;
      }
    </style>
    <filter id="shadow-filter" x="-50%" y="-50%" width="200%" height="200%" name="shadow-filter">
      <feOffset result="shadowOffsetOuter1" dx="10" dy="10" in="SourceAlpha"/>
      <feGaussianBlur result="shadowBlurOuter1" stdDeviation="14" in="shadowOffsetOuter1"/>
      <feColorMatrix result="shadowMatrixOuter1" values="0 0 0 0 0 0 0 0 0 0 0 0 0 0 0 0 0 0 0.5 0" in="shadowBlurOuter1"/>
      <feMerge>
        <feMergeNode in="shadowMatrixOuter1"/>
        <feMergeNode in="SourceGraphic"/>
      </feMerge>
    </filter>
  </defs>
  <g id="Sports_Markers_copy" data-name="Sports Markers copy">
    <g class="cls-2">
      <path class="cls-3" d="M251.39,554.5a7,7,0,0,1-4.61-1.73,693.22,693.22,0,0,1-85-92.86c-56.66-74.37-85.39-143.77-85.39-206.27a175,175,0,1,1,350,0c0,62.51-28.73,131.91-85.4,206.28a693.34,693.34,0,0,1-85,92.88A7,7,0,0,1,251.39,554.5Z" transform="translate(-24.5 -27.42)"/>
    </g>
  </g>
  <g id="Layer_7" data-name="Layer 7">
    <path class="cls-1" d="M251.75,397.17C171.39,397.17,106,331.79,106,251.43c0-3.2.22-6.32.44-9.34l.07-1.09c5.38-75.59,68.94-135,144.71-135.29l.52,0c80.36,0,145.74,65.38,145.74,145.74S332.11,397.17,251.75,397.17Zm.17-276-.67,0a130.7,130.7,0,0,0-128.1,110.75l-1.32,11.48v0c-.19,2.63-.39,5.34-.39,8a130.31,130.31,0,0,0,259.24,18.82l1.15-11.42c.15-2.64.23-5.09.23-7.39C382.06,179.65,323.68,121.2,251.92,121.12Z" transform="translate(-24.5 -27.42)"/>
  </g>
  <g id="Layer_6" data-name="Layer 6">
    <path class="cls-1" d="M366.67,280.64a19.43,19.43,0,0,0-25.28-10.81L341,270a80.31,80.31,0,0,0,14.17-45.76,81.25,81.25,0,0,0-81.16-81.16,80.35,80.35,0,0,0-48.64,16.23,82,82,0,0,0-28.23,38.88l-11.89-6a26.61,26.61,0,0,0-22-1,28.26,28.26,0,0,0-15.52,15.17L144.94,213a28.13,28.13,0,0,0-.24,21.71,26.67,26.67,0,0,0,9.68,12,33.34,33.34,0,0,0-22.9,29.11l0,.23c0,.64-.1,1.36-.1,2.13a33.06,33.06,0,1,0,61.38-17l11.23,4a81.45,81.45,0,0,0,70.08,40.27,80.48,80.48,0,0,0,29.18-5.44l20.65,7.25.79,2a19.23,19.23,0,0,0,17.92,12.13h0a19.17,19.17,0,0,0,7.19-1.4,20.47,20.47,0,0,0,11.28-11l5.42-12.69A20.16,20.16,0,0,0,366.67,280.64ZM342.59,312a10,10,0,0,1-9.25-6.27l-1.74-4.33,9-21.16,4.22-1.69A10.11,10.11,0,0,1,358,284.12a10.88,10.88,0,0,1-.1,8.4l-5.42,12.68a11.32,11.32,0,0,1-6.17,6A10,10,0,0,1,342.59,312Zm-178.17-9.06a24.74,24.74,0,0,1-24.69-23.74,29.21,29.21,0,0,0,23-16.95,4.18,4.18,0,0,0-2-5.57,4.11,4.11,0,0,0-1.79-.4,4.2,4.2,0,0,0-3.77,2.37A21.23,21.23,0,0,1,141,270.4a24.92,24.92,0,0,1,23.28-16.92h.17A24.74,24.74,0,0,1,189.09,277a29.41,29.41,0,0,0-24.2,18.84,4.18,4.18,0,0,0,2.44,5.38,4.38,4.38,0,0,0,1.47.26,4.17,4.17,0,0,0,3.9-2.7A20.51,20.51,0,0,1,188,285.66,24.88,24.88,0,0,1,164.42,302.89Zm-11.06-71.7a19.17,19.17,0,0,1,.17-14.56l2.85-6.66a18.9,18.9,0,0,1,10.41-10.18,17.16,17.16,0,0,1,13.22.15c.35.15.7.31,1,.49l117.83,59.95-10.46,24.46L163.67,241.06c-.36-.13-.72-.27-1.07-.42A17.16,17.16,0,0,1,153.36,231.19Zm183.12-23.6,1.92-14.18A71.73,71.73,0,0,1,344.81,215Zm-24.21,13.55L330,215.23l15.28,13.58a71.15,71.15,0,0,1-10.46,32.76l-10,1.54L303,252Zm14.34-15.34L309,211.68l-10.89-7.26a5,5,0,0,0-7.69,5.16,4.94,4.94,0,0,0,2.14,3.18l9.83,6.56-8.42,28.06-42.57-21.66-2-5.85,24.64-19.42,10,6.64A5,5,0,0,0,291,205.7a5,5,0,0,0,.74-3.76,5,5,0,0,0-2.13-3.19l-10.75-7.16V170.71l24.79-11.44a71.9,71.9,0,0,1,26.47,20.82Zm-36.8-51.2-16,7.39L258,154.67a71.59,71.59,0,0,1,31.86-.07Zm-45.56,4.78,24.55,11.33v21.13l-26.28,20.69L221,205.74l-3.4-25.14A71.85,71.85,0,0,1,244.25,159.38ZM206,202.66a70.52,70.52,0,0,1,3.29-8.46l1.47,10.88Zm19.75,70.09,15.87,5.57,6.83,12.52a71,71,0,0,1-27.22-18.67Zm30,10.52,31.51,11.06a70.67,70.67,0,0,1-25.37.2Zm51.37-18.69,24.74,12.59-8.52,19.93-26.19-9.19Z" transform="translate(-24.5 -27.42)"/>
  </g>
</svg>
