<svg xmlns="http://www.w3.org/2000/svg" viewBox="0 0 455.36 480">
  <defs>
    <style>
      .cls-1 {
        fill: #fff;
      }

      .cls-2 {
        fill: #1f2937;
      }
    </style>
  </defs>
  <g id="Amenities">
    <path class="cls-2" d="M122.84,160.85a50.62,50.62,0,1,1,50.61-50.62A50.68,50.68,0,0,1,122.84,160.85Zm0-87.42a36.81,36.81,0,1,0,36.8,36.8A36.85,36.85,0,0,0,122.84,73.43ZM101,420.39A21.51,21.51,0,0,1,79.5,398.91V300.46l-3.45-.5a21.56,21.56,0,0,1-18.4-21.26V191.28A21.5,21.5,0,0,1,79.12,169.8h87.43A21.51,21.51,0,0,1,188,191.28V278.7A21.57,21.57,0,0,1,169.62,300l-3.45.5v98.45a21.51,21.51,0,0,1-21.48,21.48ZM79.12,183.62a7.67,7.67,0,0,0-7.66,7.66V278.7a7.68,7.68,0,0,0,7.66,7.67h7.29a6.91,6.91,0,0,1,6.91,6.9V398.91a7.66,7.66,0,0,0,7.66,7.66h43.71a7.66,7.66,0,0,0,7.66-7.66V293.27a6.91,6.91,0,0,1,6.91-6.9h7.29a7.68,7.68,0,0,0,7.66-7.67V191.28a7.67,7.67,0,0,0-7.66-7.66Zm247.7-22.77a50.62,50.62,0,1,1,50.62-50.62A50.68,50.68,0,0,1,326.82,160.85Zm0-87.42a36.81,36.81,0,1,0,36.81,36.8A36.84,36.84,0,0,0,326.82,73.43ZM305,420.39a21.51,21.51,0,0,1-21.48-21.48v-55H261.26a6.87,6.87,0,0,1-5.88-3.27,7,7,0,0,1-.3-6.72l24.1-48.2-4.05-1.63a21.4,21.4,0,0,1-13.5-19.94V191.28a21.51,21.51,0,0,1,21.48-21.48h87.43A21.5,21.5,0,0,1,392,191.28v72.85a21.39,21.39,0,0,1-13.49,19.94l-4,1.63,24.1,48.2a7,7,0,0,1-.3,6.72,6.87,6.87,0,0,1-5.88,3.27H370.16v55a21.51,21.51,0,0,1-21.48,21.48ZM290.4,330.08a6.92,6.92,0,0,1,6.91,6.91v61.92a7.66,7.66,0,0,0,7.66,7.66h43.71a7.67,7.67,0,0,0,7.66-7.66V337a6.92,6.92,0,0,1,6.91-6.91h18l-24.15-48.29a7,7,0,0,1,.3-6.72,6.87,6.87,0,0,1,5.88-3.27h7.29a7.68,7.68,0,0,0,7.66-7.67V191.28a7.67,7.67,0,0,0-7.66-7.66H283.11a7.67,7.67,0,0,0-7.66,7.66v72.85a7.68,7.68,0,0,0,7.66,7.67h7.29a6.84,6.84,0,0,1,5.87,3.27,7,7,0,0,1,.31,6.72l-24.15,48.29Z" transform="translate(-1.58)"/>
  </g>
</svg>
