<svg xmlns="http://www.w3.org/2000/svg" xmlns:xlink="http://www.w3.org/1999/xlink" viewBox="0 0 455.36 576.25">
  <defs>
    <style>
      .cls-1 {
        fill: #fff;
      }

      .cls-2 {
        filter: url(#shadow-filter);
      }

      .cls-3 {
        fill: #ff7c1a;
      }
    </style>
    <filter id="shadow-filter" x="-50%" y="-50%" width="200%" height="200%" name="shadow-filter">
      <feOffset result="shadowOffsetOuter1" dx="10" dy="10" in="SourceAlpha"/>
      <feGaussianBlur result="shadowBlurOuter1" stdDeviation="14" in="shadowOffsetOuter1"/>
      <feColorMatrix result="shadowMatrixOuter1" values="0 0 0 0 0 0 0 0 0 0 0 0 0 0 0 0 0 0 0.5 0" in="shadowBlurOuter1"/>
      <feMerge>
        <feMergeNode in="shadowMatrixOuter1"/>
        <feMergeNode in="SourceGraphic"/>
      </feMerge>
    </filter>
  </defs>
  <g id="Sports_Markers_copy" data-name="Sports Markers copy">
    <g class="cls-2">
      <path class="cls-3" d="M251.39,554.5a7,7,0,0,1-4.61-1.73,693.22,693.22,0,0,1-85-92.86c-56.66-74.37-85.39-143.77-85.39-206.27a175,175,0,1,1,350,0c0,62.51-28.73,131.91-85.4,206.28a693.34,693.34,0,0,1-85,92.88A7,7,0,0,1,251.39,554.5Z" transform="translate(-24.5 -27.42)"/>
    </g>
  </g>
  <g id="Layer_7" data-name="Layer 7">
    <path class="cls-1" d="M250.35,397.17c-80.37,0-145.75-65.38-145.75-145.74,0-3.2.23-6.32.44-9.34l.08-1.09c5.37-75.59,68.93-135,144.7-135.29l.53,0c80.36,0,145.74,65.38,145.74,145.74S330.71,397.17,250.35,397.17Zm.16-276-.66,0A130.7,130.7,0,0,0,121.74,231.89l-1.31,11.48v0c-.2,2.63-.39,5.34-.39,8,0,71.86,58.45,130.31,130.3,130.31A130.49,130.49,0,0,0,379.28,270.24l1.15-11.42c.15-2.64.22-5.09.22-7.39C380.65,179.65,322.28,121.2,250.51,121.12Z" transform="translate(-24.5 -27.42)"/>
  </g>
  <g id="Layer_6" data-name="Layer 6">
    <path class="cls-1" d="M334.43,321.48a45.42,45.42,0,0,0-7-8.87,41.31,41.31,0,0,0,5.77-62.84l-.23-.23a41.29,41.29,0,0,0-70.45,31c-.87.27-1.74.58-2.59.92a38.64,38.64,0,0,0-11.65-8.39l-15.57-58.14h.59a25.12,25.12,0,0,1,11.54,2.88,5.57,5.57,0,0,0,2.34,2.27,5.69,5.69,0,0,0,2.56.62,5.62,5.62,0,0,0,5-3.06,12.48,12.48,0,0,0,.9-2.39,24.6,24.6,0,0,1,14.59-11.06,24.08,24.08,0,0,1,6.19-.82,25.4,25.4,0,0,1,13.49,4,5.62,5.62,0,0,0,3,.86,5.63,5.63,0,0,0,5.42-7.06,72,72,0,0,0-12.39-25.27,80.2,80.2,0,0,0-26.45-21.47,72.57,72.57,0,0,0-101.34,84.3,5.59,5.59,0,0,0,4.8,4.12,4.44,4.44,0,0,0,.63,0,5.62,5.62,0,0,0,5-3A24.69,24.69,0,0,1,184,227.29a23.66,23.66,0,0,1,6.19-.82,25.16,25.16,0,0,1,12,3.1,11.79,11.79,0,0,0,2,1.62,5.6,5.6,0,0,0,8.65-4.8,25.11,25.11,0,0,1,9.08-8.56l13.88,51.85c-1.1-.1-2.21-.15-3.32-.15-.8,0-1.61,0-2.41.08-15.25,1-28.59,11.2-34.31,26.14-13,2.19-24.08,10.93-30.57,24.15-1.08,2.2-3.1,6.29-.74,10,2.1,3.31,5.79,3.58,9.38,3.58l2.42,0H327.6l1.36,0h1a6.52,6.52,0,0,0,6.12-3.05c1.86-3.22.12-6.05-1.27-8.33ZM195.89,167.79c-2.93,9-3.41,18.63-3.41,24.13a96.76,96.76,0,0,0,2.8,23.4c0,.1.05.2.08.3a34.36,34.36,0,0,0-5.16-.38,35.3,35.3,0,0,0-23.2,8.7A61.44,61.44,0,0,1,195.89,167.79Zm58.75-3.22c9.91,4.57,17.41,10.65,22.3,18.07l.08.11a61.15,61.15,0,0,1,6.22,10.05,34.74,34.74,0,0,0-6.82-.67,35.27,35.27,0,0,0-21.91,7.64c0-.1,0-.2-.08-.3a96.94,96.94,0,0,0-9.27-21.66c-2.74-4.76-8-12.89-15-19.19A61.65,61.65,0,0,1,254.64,164.57Zm-42.18-3.45c7.28,1.57,15.79,9.81,23,22.29a78.7,78.7,0,0,1,8.89,22,35.28,35.28,0,0,0-37.3,10,78.42,78.42,0,0,1-3.31-23.54C203.69,177.51,207,166.12,212.46,161.12Zm-7.18,141.32c3.46-12.17,13.69-20.87,25.44-21.63.56,0,1.12-.05,1.68-.05a27,27,0,0,1,21.6,11,5.63,5.63,0,0,0,4.48,2.23,5.57,5.57,0,0,0,2.84-.78,20.49,20.49,0,0,1,9.07-2.82c.43,0,.86,0,1.29,0,8.52,0,16.18,5.45,19.51,13.87l.05.12a25.72,25.72,0,0,1,1.08,3.51,5.65,5.65,0,0,0,5.47,4.39h.37q.87-.06,1.74-.06a27,27,0,0,1,14.16,4.07,6.39,6.39,0,0,0,.68.43,31,31,0,0,1,6.36,5.52H176.6c5.47-9.29,14.13-15.11,23.64-15.73A5.62,5.62,0,0,0,205.28,302.44Zm98.47-53.78a30.34,30.34,0,0,1,6.48.7,78.05,78.05,0,0,0-20.69,15.17A84.94,84.94,0,0,0,277.4,279.7a30.67,30.67,0,0,0-3.7-.47,30.09,30.09,0,0,1,30.05-30.57Zm30.07,30.09a30.15,30.15,0,0,1-16.18,26.68,38.25,38.25,0,0,0-9.95-3.62A88.64,88.64,0,0,0,318,293a77.73,77.73,0,0,0,15.18-20.69A30.43,30.43,0,0,1,333.82,278.75Zm-35.1,15.63a32.86,32.86,0,0,0-10.63-10.55,76.21,76.21,0,0,1,9.39-11.36c6.24-6.24,13-11.08,19.06-13.64a18.83,18.83,0,0,1,6.78-1.71,2.75,2.75,0,0,1,1.69.36c.55.55.71,3.59-1.35,8.47C321.1,272,316.25,278.77,310,285A74.26,74.26,0,0,1,298.72,294.38Z" transform="translate(-24.5 -27.42)"/>
  </g>
</svg>
