<svg xmlns="http://www.w3.org/2000/svg" xmlns:xlink="http://www.w3.org/1999/xlink" viewBox="0 0 455.36 576.25">
  <defs>
    <style>
      .cls-1 {
        fill: #fff;
      }

      .cls-2 {
        filter: url(#shadow-filter);
      }

      .cls-3 {
        fill: #ff7c1a;
      }
    </style>
    <filter id="shadow-filter" x="-50%" y="-50%" width="200%" height="200%" name="shadow-filter">
      <feOffset result="shadowOffsetOuter1" dx="10" dy="10" in="SourceAlpha"/>
      <feGaussianBlur result="shadowBlurOuter1" stdDeviation="14" in="shadowOffsetOuter1"/>
      <feColorMatrix result="shadowMatrixOuter1" values="0 0 0 0 0 0 0 0 0 0 0 0 0 0 0 0 0 0 0.5 0" in="shadowBlurOuter1"/>
      <feMerge>
        <feMergeNode in="shadowMatrixOuter1"/>
        <feMergeNode in="SourceGraphic"/>
      </feMerge>
    </filter>
  </defs>
  <g id="Sports_Markers_copy" data-name="Sports Markers copy">
    <g class="cls-2">
      <path class="cls-3" d="M251.39,554.5a7,7,0,0,1-4.61-1.73,693.22,693.22,0,0,1-85-92.86c-56.66-74.37-85.39-143.77-85.39-206.27a175,175,0,1,1,350,0c0,62.51-28.73,131.91-85.4,206.28a693.34,693.34,0,0,1-85,92.88A7,7,0,0,1,251.39,554.5Z" transform="translate(-24.5 -27.42)"/>
    </g>
  </g>
  <g id="Layer_7" data-name="Layer 7">
    <path class="cls-1" d="M250.35,397.17c-80.37,0-145.75-65.38-145.75-145.74,0-3.2.23-6.32.44-9.34l.08-1.09c5.37-75.59,68.93-135,144.7-135.29l.53,0c80.36,0,145.74,65.38,145.74,145.74S330.71,397.17,250.35,397.17Zm.16-276-.66,0A130.7,130.7,0,0,0,121.74,231.89l-1.31,11.48v0c-.2,2.63-.39,5.34-.39,8,0,71.86,58.45,130.31,130.3,130.31A130.49,130.49,0,0,0,379.28,270.24l1.15-11.42c.15-2.64.22-5.09.22-7.39C380.65,179.65,322.28,121.2,250.51,121.12Z" transform="translate(-24.5 -27.42)"/>
  </g>
  <g id="Layer_6" data-name="Layer 6">
    <path class="cls-1" d="M295.41,214.4l36.87-36.87a5.55,5.55,0,1,1,7.85,7.86l-36.86,36.86a5.55,5.55,0,0,1-7.86-7.85Zm-17.87,35.22-9.33,10.51,57.43,51c.42.35.82.72,1.19,1.09a20.49,20.49,0,0,1-29,29c-.37-.36-.74-.76-1.12-1.21L247,284l-49.72,56c-.35.41-.71.81-1.09,1.19a20.49,20.49,0,0,1-29-29c.37-.37.76-.74,1.21-1.12L223,262.66l2.86-2.51-8.73-9.84a37.75,37.75,0,0,1-42.52-7.7c-11.28-11.28-19.22-24.38-22.37-36.89-3.38-13.41-1.06-25,6.53-32.57,5.27-5.26,12.55-8,21.08-8a46.85,46.85,0,0,1,11.49,1.51c12.51,3.15,25.61,11.09,36.89,22.37a37.76,37.76,0,0,1,7.7,42.52L247,241.34l11.77-10.45a28.11,28.11,0,0,1,7-27.82l45.76-45.76a5.55,5.55,0,0,1,7.86,0,5.58,5.58,0,0,1,0,7.86l-45.76,45.76a16.87,16.87,0,0,0-3.3,19.17,5.57,5.57,0,0,1-1.32,6.55l-93.38,82.88c-.2.17-.39.34-.56.51a9.38,9.38,0,0,0,13.26,13.28c.17-.18.35-.37.53-.59L256.15,257l0-.05.09-.1,15.5-17.46a5.56,5.56,0,0,1,6.55-1.33,16.86,16.86,0,0,0,19.17-3.29L343.26,189a5.58,5.58,0,0,1,7.86,0,5.58,5.58,0,0,1,0,7.86l-45.76,45.76a27.8,27.8,0,0,1-19.8,8.18h0A27.84,27.84,0,0,1,277.54,249.62Zm28.16,83.69A9.38,9.38,0,1,0,319,320.05c-.18-.17-.37-.35-.59-.53l-57.55-51.08-6.36,7.17,50.7,57.12A7.8,7.8,0,0,0,305.7,333.31ZM220.4,196.85c-9.88-9.88-21.15-16.79-31.75-19.46a35.82,35.82,0,0,0-8.74-1.17c-5.54,0-10.12,1.66-13.25,4.79-4.72,4.72-6,12.53-3.62,22,2.67,10.59,9.58,21.86,19.46,31.74a26.67,26.67,0,0,0,33,3.88,5.54,5.54,0,0,1,7.07,1l11.61,13.08,4.49-4-13.35-11.85a5.55,5.55,0,0,1-1-7.07A26.68,26.68,0,0,0,220.4,196.85Zm65,15.54a5.56,5.56,0,0,0,7.86,0l36.86-36.86a5.55,5.55,0,1,0-7.86-7.85l-36.86,36.86A5.56,5.56,0,0,0,285.39,212.39Z" transform="translate(-24.5 -27.42)"/>
  </g>
</svg>
