<svg xmlns="http://www.w3.org/2000/svg" viewBox="0 0 455.36 480">
  <defs>
    <style>
      .cls-1 {
        fill: #fff;
      }

      .cls-2 {
        fill: #1f2937;
      }
    </style>
  </defs>
  <g id="Amenities">
    <path class="cls-2" d="M58.65,296.85A68.33,68.33,0,1,0,127,228.52a68.41,68.41,0,0,0-68.33,68.33Zm125.37,0a57,57,0,1,1-57-57,57.11,57.11,0,0,1,57,57Zm-135.69-47a.36.36,0,0,1,0,.09A91.64,91.64,0,1,0,218.6,298.76h19.73A91.65,91.65,0,1,0,408.64,249.9h0l0-.09-45.77-94.89A65.73,65.73,0,0,0,333.4,125l-4.32-9a43.41,43.41,0,0,0-82.51,18.87v16.67A64.93,64.93,0,0,0,239,174H218a64.7,64.7,0,0,0-7.58-22.41V134.91A43.42,43.42,0,0,0,127.85,116l-4.32,9A65.75,65.75,0,0,0,94.1,154.92Zm116.34-36.52a91.61,91.61,0,0,0-90.33,8.58l29.93-62.05a54.23,54.23,0,0,1,103.07,23.56V252.8a91.68,91.68,0,0,0-21-25.79A84,84,0,0,0,164.67,213.29ZM179,235.61a80,80,0,1,1-19-12A67.69,67.69,0,0,1,179,235.61Zm173.66-75.79,29.93,62.05a91.56,91.56,0,0,0-133,31V183.38a54.23,54.23,0,0,1,103.08-23.56ZM238.31,287.48H218.63V185.28h19.68ZM290,102.78a32.33,32.33,0,0,1,28.17,16.7,65.23,65.23,0,0,0-60.3,17.27v-1.84A32.16,32.16,0,0,1,290,102.78ZM153.11,117.87a65.08,65.08,0,0,0-14.32,1.61,32.12,32.12,0,0,1,60.3,15.43v1.84A65.32,65.32,0,0,0,153.11,117.87ZM330,377.22a80.37,80.37,0,1,1,80.37-80.37A80.46,80.46,0,0,1,330,377.22ZM355.6,233.53s-10.2-5-25.77-5c-37.23,0-68.2,30.72-68.2,68.32a68.33,68.33,0,1,0,94-63.32ZM330,353.9a57,57,0,0,1-.11-114.09c7.95,0,15,2,21.5,4.18A57,57,0,0,1,330,353.9Z" transform="translate(-1.58)"/>
  </g>
</svg>
