<svg xmlns="http://www.w3.org/2000/svg" xmlns:xlink="http://www.w3.org/1999/xlink" viewBox="0 0 455.36 576.25">
  <defs>
    <style>
      .cls-1 {
        fill: #fff;
      }

      .cls-2 {
        filter: url(#shadow-filter);
      }

      .cls-3 {
        fill: #ff7c1a;
      }
    </style>
    <filter id="shadow-filter" x="-50%" y="-50%" width="200%" height="200%" name="shadow-filter">
      <feOffset result="shadowOffsetOuter1" dx="10" dy="10" in="SourceAlpha"/>
      <feGaussianBlur result="shadowBlurOuter1" stdDeviation="14" in="shadowOffsetOuter1"/>
      <feColorMatrix result="shadowMatrixOuter1" values="0 0 0 0 0 0 0 0 0 0 0 0 0 0 0 0 0 0 0.5 0" in="shadowBlurOuter1"/>
      <feMerge>
        <feMergeNode in="shadowMatrixOuter1"/>
        <feMergeNode in="SourceGraphic"/>
      </feMerge>
    </filter>
  </defs>
  <g id="Sports_Markers_copy" data-name="Sports Markers copy">
    <g class="cls-2">
      <path class="cls-3" d="M251.39,554.5a7,7,0,0,1-4.61-1.73,693.22,693.22,0,0,1-85-92.86c-56.66-74.37-85.39-143.77-85.39-206.27a175,175,0,1,1,350,0c0,62.51-28.73,131.91-85.4,206.28a693.34,693.34,0,0,1-85,92.88A7,7,0,0,1,251.39,554.5Z" transform="translate(-24.5 -27.42)"/>
    </g>
  </g>
  <g id="Layer_7" data-name="Layer 7">
    <path class="cls-1" d="M250.35,397.17c-80.37,0-145.75-65.38-145.75-145.74,0-3.2.23-6.32.44-9.34l.08-1.09c5.37-75.59,68.93-135,144.7-135.29l.53,0c80.36,0,145.74,65.38,145.74,145.74S330.71,397.17,250.35,397.17Zm.16-276-.66,0A130.7,130.7,0,0,0,121.74,231.89l-1.31,11.48v0c-.2,2.63-.39,5.34-.39,8,0,71.86,58.45,130.31,130.3,130.31A130.49,130.49,0,0,0,379.28,270.24l1.15-11.42c.15-2.64.22-5.09.22-7.39C380.65,179.65,322.28,121.2,250.51,121.12Z" transform="translate(-24.5 -27.42)"/>
  </g>
  <g id="Layer_6" data-name="Layer 6">
    <path class="cls-1" d="M231.67,317.37a5.89,5.89,0,0,1,5.88-5.88H266a5.88,5.88,0,0,1,0,11.76h-28.4A5.89,5.89,0,0,1,231.67,317.37Zm76.17-24.21v38.59h3.9c6.69,0,8.09,3.37,8.09,6.19,0,5.91-6.09,5.91-8.09,5.91h-120c-2,0-8.1,0-8.1-5.91,0-2.82,1.4-6.19,8.1-6.19h3.89V293.16h-3.89a8.1,8.1,0,0,1-8.1-8.1v-12A20.11,20.11,0,0,1,203.76,253h1.06l-5.08-16.62c0-.14-.07-.27-.11-.4a20.1,20.1,0,0,1,19.5-25h8.63a3.9,3.9,0,0,0,3.89-3.9v-3.27c-7.08-9-12-22.3-12-32.72a32.09,32.09,0,1,1,64.18,0c0,10.42-4.9,23.75-12,32.72v3.27a3.91,3.91,0,0,0,3.9,3.9h8.62a20.1,20.1,0,0,1,19.5,25c0,.13-.07.26-.11.39L298.68,253h1.06a20.11,20.11,0,0,1,20.09,20.1v12a8.1,8.1,0,0,1-8.09,8.1Zm-100.35-.07v38.66H296V293.09Zm92.25-28.29h-96a8.27,8.27,0,0,0-8.26,8.27v8.26H308v-8.26A8.28,8.28,0,0,0,299.74,264.8Zm-48-114a20.28,20.28,0,0,0-20.26,20.26c0,6.11,2.55,14.38,6.5,21.07,4.28,7.22,9.16,11.19,13.76,11.19s9.49-4,13.76-11.19c3.95-6.69,6.5-15,6.5-21.07A20.28,20.28,0,0,0,251.75,150.83Zm-24,72h-8.63a8.25,8.25,0,0,0-8.06,10.1l0,.08,6.12,20h69.08l6.13-20,0-.09a8.26,8.26,0,0,0-8.07-10.09h-8.62c-7.6,0-13.63-4.07-15.41-10.38l-.08-.18a18.85,18.85,0,0,1-17,0l-.07.18C241.38,218.74,235.35,222.81,227.76,222.81Z" transform="translate(-24.5 -27.42)"/>
  </g>
</svg>
