<?xml version="1.0" encoding="utf-8"?>
<!-- Generator: Adobe Illustrator 24.1.3, SVG Export Plug-In . SVG Version: 6.00 Build 0)  -->
<svg version="1.1" id="Layer_1" xmlns="http://www.w3.org/2000/svg" xmlns:xlink="http://www.w3.org/1999/xlink" x="0px" y="0px"
	 viewBox="0 0 455.4 576.3" style="enable-background:new 0 0 455.4 576.3;" xml:space="preserve">
<style type="text/css">
	.st0{fill:#FF7C1A;}
	.st1{fill:#FFFFFF;stroke:#FFFFFF;stroke-width:13.7778;stroke-miterlimit:10;}
	.st2{fill:#FFFFFF;}
</style>
<g id="Sports_Markers_copy">
	<g>
		<path class="st0" d="M226.9,527.1c-1.7,0-3.3-0.6-4.6-1.7c-31.1-28.3-59.5-59.4-85-92.9c-56.7-74.4-85.4-143.8-85.4-206.3
			c0-96.6,78.4-175,175-175s175,78.4,175,175c0,62.5-28.7,131.9-85.4,206.3c-25.5,33.5-53.9,64.6-85,92.9
			C230.2,526.5,228.6,527.1,226.9,527.1z"/>
	</g>
</g>
<g>
	<path class="st1" d="M225.9,95.5c34.5,0,67,13.5,91.4,37.8s37.8,56.9,37.8,91.4s-13.5,67-37.8,91.4s-56.9,37.8-91.4,37.8
		s-67-13.5-91.4-37.8s-37.9-56.8-37.9-91.3s13.5-67,37.8-91.4S191.3,95.5,225.9,95.5 M225.9,85.3c-77,0-139.5,62.5-139.5,139.5
		s62.5,139.5,139.5,139.5s139.5-62.5,139.5-139.5S302.9,85.3,225.9,85.3L225.9,85.3z"/>
</g>
<g>
	<path class="st2" d="M184.6,297.5V162.7h43.6c16.5,0,27.3,0.7,32.3,2c7.7,2,14.1,6.4,19.4,13.2s7.8,15.5,7.8,26.2
		c0,8.3-1.5,15.2-4.5,20.8c-3,5.6-6.8,10-11.4,13.3c-4.6,3.2-9.3,5.4-14.1,6.4c-6.5,1.3-15.9,2-28.2,2h-17.7v50.8H184.6L184.6,297.5
		z M211.8,185.5v38.2h14.9c10.7,0,17.9-0.7,21.5-2.1c3.6-1.4,6.4-3.6,8.5-6.6c2-3,3.1-6.5,3.1-10.5c0-4.9-1.5-8.9-4.3-12.1
		c-2.9-3.2-6.6-5.2-10.9-6c-3.3-0.6-9.8-0.9-19.6-0.9H211.8z"/>
</g>
</svg>
