<svg xmlns="http://www.w3.org/2000/svg" xmlns:xlink="http://www.w3.org/1999/xlink" viewBox="0 0 455.36 576.25">
  <defs>
    <style>
      .cls-1 {
        fill: #fff;
      }

      .cls-2 {
        filter: url(#shadow-filter);
      }

      .cls-3 {
        fill: #ff7c1a;
      }
    </style>
    <filter id="shadow-filter" x="-50%" y="-50%" width="200%" height="200%" name="shadow-filter">
      <feOffset result="shadowOffsetOuter1" dx="10" dy="10" in="SourceAlpha"/>
      <feGaussianBlur result="shadowBlurOuter1" stdDeviation="14" in="shadowOffsetOuter1"/>
      <feColorMatrix result="shadowMatrixOuter1" values="0 0 0 0 0 0 0 0 0 0 0 0 0 0 0 0 0 0 0.5 0" in="shadowBlurOuter1"/>
      <feMerge>
        <feMergeNode in="shadowMatrixOuter1"/>
        <feMergeNode in="SourceGraphic"/>
      </feMerge>
    </filter>
  </defs>
  <g id="Sports_Markers_copy" data-name="Sports Markers copy">
    <g class="cls-2">
      <path class="cls-3" d="M251.39,554.5a7,7,0,0,1-4.61-1.73,693.22,693.22,0,0,1-85-92.86c-56.66-74.37-85.39-143.77-85.39-206.27a175,175,0,1,1,350,0c0,62.51-28.73,131.91-85.4,206.28a693.34,693.34,0,0,1-85,92.88A7,7,0,0,1,251.39,554.5Z" transform="translate(-24.5 -27.42)"/>
    </g>
  </g>
  <g id="Layer_7" data-name="Layer 7">
    <path class="cls-1" d="M251.75,397.17C171.39,397.17,106,331.79,106,251.43c0-3.2.22-6.32.44-9.34l.07-1.09c5.38-75.59,68.94-135,144.71-135.29l.52,0c80.36,0,145.74,65.38,145.74,145.74S332.11,397.17,251.75,397.17Zm.17-276-.67,0a130.7,130.7,0,0,0-128.1,110.75l-1.32,11.48v0c-.19,2.63-.39,5.34-.39,8a130.31,130.31,0,0,0,259.24,18.82l1.15-11.42c.15-2.64.23-5.09.23-7.39C382.06,179.65,323.68,121.2,251.92,121.12Z" transform="translate(-24.5 -27.42)"/>
  </g>
  <g id="Layer_6" data-name="Layer 6">
    <path class="cls-1" d="M361.8,236.27h-45a9.94,9.94,0,0,0-9.93,9.93v8.32h-1.43l-8.43-33h23.51A5.46,5.46,0,0,0,326,216.1V202.82a9.94,9.94,0,0,0-9.93-9.93H190.59a9.94,9.94,0,0,0-9.93,9.93V216.1a5.45,5.45,0,0,0,5.44,5.45h23.52L201.31,254h0l-.13.48h-4.55V246.2a10,10,0,0,0-9.93-9.93h-45a9.94,9.94,0,0,0-9.93,9.93v12.12a6.18,6.18,0,0,0,6.17,6.18h61.54L189.65,303a5.46,5.46,0,0,0,5.22,7h24a5.44,5.44,0,0,0,5.13-3.62l15-41.83h28.27l14.9,41.64a5.43,5.43,0,0,0,5.2,3.81h25.38a5.46,5.46,0,0,0,5.29-6.8l-9.88-38.65h57.44a6.18,6.18,0,0,0,6.17-6.18V246.2A9.94,9.94,0,0,0,361.8,236.27ZM185.68,247.2V254h-43V247.2Zm105.49,51.85-12.35-34.54h18l8.82,34.54Zm-45.93-47.93a11.44,11.44,0,0,1,4.7-2.84,11.59,11.59,0,0,1,3.4-.52,11.34,11.34,0,0,1,5.28,1.31,10.16,10.16,0,0,1,4.79,5H243.19A10.39,10.39,0,0,1,245.24,251.12Zm8.08-14.25a22.31,22.31,0,0,0-15.83,6.61c-3.45,3.48-4.65,6.77-6,10.56H212.57l8.31-32.49h64.91l8.3,32.49h-19c-2.11-5.83-4.32-10.86-11.46-14.61A22.36,22.36,0,0,0,253.32,236.87ZM201.9,299.05l8.83-34.54h16.64L215,299.05Zm-10.33-88.41V203.8H315.1v6.84ZM360.82,247.2V254h-43V247.2Z" transform="translate(-24.5 -27.42)"/>
  </g>
</svg>
