<svg xmlns="http://www.w3.org/2000/svg" viewBox="0 0 455.36 480">
  <defs>
    <style>
      .cls-1 {
        fill: #fff;
      }

      .cls-2 {
        fill: #1f2937;
      }
    </style>
  </defs>
  <g id="Amenities">
    <path class="cls-2" d="M283.86,124.48a123.47,123.47,0,0,1,15.95,27.78,65.43,65.43,0,0,0-65.42,15c-.46-2.12-1-4.32-1.62-6.63A185.35,185.35,0,0,0,215,119c-6.11-10.62-19.34-31-36.92-43.28a124.14,124.14,0,0,1,60.48,11.89C257.78,96.54,273.46,108.69,283.86,124.48ZM244.69,74.71a138.56,138.56,0,0,0-95.5-8.77h-.05l-.09,0C75.35,85.83,31.46,161.92,51.21,235.67a7.16,7.16,0,0,0,6.12,5.27,7.34,7.34,0,0,0,.81.05,7.17,7.17,0,0,0,6.33-3.83c7.1-13.43,18.74-22.9,32.77-26.66a51.94,51.94,0,0,1,39,5.1,20.15,20.15,0,0,0,3.62,3.05,7.16,7.16,0,0,0,11-7.14A52.41,52.41,0,0,1,175,190.18L205,302a69,69,0,0,0-16.21-.86C159.62,303,134.15,323.23,124,352c-24.91,3.41-46.86,20.17-59.37,45.63-1.91,3.9-5.12,10.42-1.66,15.86s10,5.38,19.93,5.2H380.07c1.17,0,2.17,0,3,.05q.78,0,1.62,0c3.14,0,6.6-.46,8.68-4.07,2.5-4.33.21-8.07-2.45-12.41l-.76-1.24a85.41,85.41,0,0,0-16.72-19.94,77.22,77.22,0,0,0,14.38-120.51h0a77.18,77.18,0,0,0-131.5,61,57.57,57.57,0,0,0-10.09,3.54,72.8,72.8,0,0,0-25.14-18.31L188.89,186.47a52.39,52.39,0,0,1,31.66,6.34,7.16,7.16,0,0,0,13.07.7,20.64,20.64,0,0,0,1.61-4.43,51.92,51.92,0,0,1,31.22-23.92c14-3.76,28.81-1.37,41.65,6.71A7.17,7.17,0,0,0,318.85,164a137.75,137.75,0,0,0-23.58-48.16A152.86,152.86,0,0,0,244.69,74.71ZM82.85,404.37h-.13c-1.76,0-3.71.06-5.42.06l.22-.45c11-22.47,30.62-36.73,52.37-38.15a7.16,7.16,0,0,0,6.43-5.19c7.25-25.45,28.71-43.63,53.39-45.23,18.81-1.23,37.13,7.4,49,23.08a7.16,7.16,0,0,0,9.36,1.86,43.83,43.83,0,0,1,19.49-6.06c19.51-1.26,37.23,10.84,44.65,29.57l.09.23a52.07,52.07,0,0,1,2.29,7.46,7.19,7.19,0,0,0,7.46,5.59,56.59,56.59,0,0,1,33.61,8.51,6.84,6.84,0,0,0,1.12.71,67.64,67.64,0,0,1,18.46,18Zm41.28-214.6c.6,2.31,1.24,4.48,1.91,6.54A65.43,65.43,0,0,0,61.88,216,124.6,124.6,0,0,1,129.12,88.86c-9.09,19.42-10.37,43.69-10.35,56A185.58,185.58,0,0,0,124.13,189.77Zm18.08,8.81c-4.7-10.68-9.07-30.39-9.1-53.79,0-30.8,7.36-54.6,19.92-64.52,15.83,2.32,34.14,19.23,49.5,45.92,11.66,20.28,17.72,39.54,19,51.13a65.48,65.48,0,0,0-79.3,21.26ZM270.6,319.88a62.91,62.91,0,0,1,86.77-62.79q-3,1-6.09,2.27c-14,5.91-29.31,16.8-43.18,30.67a158.63,158.63,0,0,0-24.66,31.36,56.38,56.38,0,0,0-12.84-1.51Zm51.51,31.4a61.11,61.11,0,0,0-25-24.78,148.7,148.7,0,0,1,21.13-26.33c12.59-12.59,26.31-22.39,38.63-27.6,9.68-4.09,17.85-4.81,20.84-1.82h0c3,3,2.26,11.16-1.84,20.84-5.2,12.32-15,26-27.6,38.63a146.47,146.47,0,0,1-26.16,21.06Zm38.33,20.61a71.27,71.27,0,0,0-29.82-9,162.2,162.2,0,0,0,27.79-22.52c13.87-13.86,24.76-29.2,30.67-43.18.88-2.08,1.64-4.1,2.27-6.08a63,63,0,0,1-13.66,68.57,62,62,0,0,1-17.25,12.23Z" transform="translate(-1.58)"/>
  </g>
</svg>
