<svg xmlns="http://www.w3.org/2000/svg" xmlns:xlink="http://www.w3.org/1999/xlink" viewBox="0 0 455.36 576.25">
  <defs>
    <style>
      .cls-1 {
        fill: #fff;
      }

      .cls-2 {
        filter: url(#shadow-filter);
      }

      .cls-3 {
        fill: #ff7c1a;
      }
    </style>
    <filter id="shadow-filter" x="-50%" y="-50%" width="200%" height="200%" name="shadow-filter">
      <feOffset result="shadowOffsetOuter1" dx="10" dy="10" in="SourceAlpha"/>
      <feGaussianBlur result="shadowBlurOuter1" stdDeviation="14" in="shadowOffsetOuter1"/>
      <feColorMatrix result="shadowMatrixOuter1" values="0 0 0 0 0 0 0 0 0 0 0 0 0 0 0 0 0 0 0.5 0" in="shadowBlurOuter1"/>
      <feMerge>
        <feMergeNode in="shadowMatrixOuter1"/>
        <feMergeNode in="SourceGraphic"/>
      </feMerge>
    </filter>
  </defs>
  <g id="Sports_Markers_copy" data-name="Sports Markers copy">
    <g class="cls-2">
      <path class="cls-3" d="M251.39,554.5a7,7,0,0,1-4.61-1.73,693.22,693.22,0,0,1-85-92.86c-56.66-74.37-85.39-143.77-85.39-206.27a175,175,0,1,1,350,0c0,62.51-28.73,131.91-85.4,206.28a693.34,693.34,0,0,1-85,92.88A7,7,0,0,1,251.39,554.5Z" transform="translate(-24.5 -27.42)"/>
    </g>
  </g>
  <g id="Layer_7" data-name="Layer 7">
    <path class="cls-1" d="M250.35,397.17c-80.37,0-145.75-65.38-145.75-145.74,0-3.2.23-6.32.44-9.34l.08-1.09c5.37-75.59,68.93-135,144.7-135.29l.53,0c80.36,0,145.74,65.38,145.74,145.74S330.71,397.17,250.35,397.17Zm.16-276-.66,0A130.7,130.7,0,0,0,121.74,231.89l-1.31,11.48v0c-.2,2.63-.39,5.34-.39,8,0,71.86,58.45,130.31,130.3,130.31A130.49,130.49,0,0,0,379.28,270.24l1.15-11.42c.15-2.64.22-5.09.22-7.39C380.65,179.65,322.28,121.2,250.51,121.12Z" transform="translate(-24.5 -27.42)"/>
  </g>
  <g id="Layer_6" data-name="Layer 6">
    <path class="cls-1" d="M302.9,212.27A28.33,28.33,0,1,0,274.57,184,28.36,28.36,0,0,0,302.9,212.27Zm0-11.19A17.14,17.14,0,1,1,320,184,17.15,17.15,0,0,1,302.9,201.08ZM342,299.36l-11.56-23.13.09,0A13.12,13.12,0,0,0,338.79,264V226.09a13.18,13.18,0,0,0-13.16-13.17H280.17A13.18,13.18,0,0,0,267,226.09V264a13.12,13.12,0,0,0,8.27,12.23l.09,0L263.8,299.36a5.63,5.63,0,0,0,.24,5.44,5.57,5.57,0,0,0,4.76,2.65h9.56v26.61a13.19,13.19,0,0,0,13.17,13.17h22.73a13.19,13.19,0,0,0,13.17-13.17V307.45H337a5.57,5.57,0,0,0,4.76-2.65A5.63,5.63,0,0,0,342,299.36Zm-25.74,2.5v32.2a2,2,0,0,1-2,2H291.53a2,2,0,0,1-2-2v-32.2a5.6,5.6,0,0,0-5.6-5.59h-6.1L289,274.05a5.63,5.63,0,0,0-.25-5.44A5.54,5.54,0,0,0,284,266h-3.78a2,2,0,0,1-2-2V226.09a2,2,0,0,1,2-2h45.46a2,2,0,0,1,2,2V264a2,2,0,0,1-2,2h-3.79a5.56,5.56,0,0,0-4.76,2.65,5.66,5.66,0,0,0-.25,5.44l11.11,22.22h-6.1A5.59,5.59,0,0,0,316.25,301.86Zm-96.7-88.94H174.09a13.19,13.19,0,0,0-13.17,13.17v45.46a13.24,13.24,0,0,0,11.29,13h.08v49.46a13.19,13.19,0,0,0,13.17,13.17h22.73a13.18,13.18,0,0,0,13.16-13.17V284.6h.08a13.24,13.24,0,0,0,11.29-13V226.09A13.19,13.19,0,0,0,219.55,212.92Zm-9.38,66.21v54.93a2,2,0,0,1-2,2H185.46a2,2,0,0,1-2-2V279.13a5.59,5.59,0,0,0-5.59-5.59h-3.79a2,2,0,0,1-2-2V226.09a2,2,0,0,1,2-2h45.46a2,2,0,0,1,2,2v45.46a2,2,0,0,1-2,2h-3.79A5.59,5.59,0,0,0,210.17,279.13Zm-13.35-66.86A28.33,28.33,0,1,0,168.5,184,28.35,28.35,0,0,0,196.82,212.27Zm0-45.46A17.14,17.14,0,1,1,179.68,184,17.16,17.16,0,0,1,196.82,166.81Z" transform="translate(-24.5 -27.42)"/>
  </g>
</svg>
