<?xml version="1.0" encoding="utf-8"?>
<!-- Generator: Adobe Illustrator 24.1.3, SVG Export Plug-In . SVG Version: 6.00 Build 0)  -->
<svg version="1.1" id="Layer_1" xmlns="http://www.w3.org/2000/svg" xmlns:xlink="http://www.w3.org/1999/xlink" x="0px" y="0px"
	 viewBox="0 0 455.4 576.3" style="enable-background:new 0 0 455.4 576.3;" xml:space="preserve">
<style type="text/css">
	.st0{fill:#FF7C1A;}
	.st1{display:none;}
	.st2{display:inline;fill:#FFFFFF;}
	.st3{fill:#FFFFFF;stroke:#FFFFFF;stroke-width:6.808;stroke-miterlimit:10;}
	.st4{fill:#FFFFFF;}
</style>
<g id="Sports_Markers_copy">
	<g>
		<path class="st0" d="M226.9,527.1c-1.7,0-3.3-0.6-4.6-1.7c-31.1-28.3-59.5-59.4-85-92.9c-56.7-74.4-85.4-143.8-85.4-206.3
			c0-96.6,78.4-175,175-175s175,78.4,175,175c0,62.5-28.7,131.9-85.4,206.3c-25.5,33.5-53.9,64.6-85,92.9
			C230.2,526.5,228.6,527.1,226.9,527.1z"/>
	</g>
</g>
<g id="Layer_7" class="st1">
	<path class="st2" d="M225.9,369.8c-80.4,0-145.8-65.4-145.8-145.7c0-3.2,0.2-6.3,0.4-9.3l0.1-1.1C86,138,149.6,78.6,225.3,78.3h0.5
		c80.4,0,145.7,65.4,145.7,145.7S306.2,369.8,225.9,369.8z M226,93.8h-0.7C161.3,94.3,107,141.2,97.2,204.5l-1.3,11.5l0,0
		c-0.2,2.6-0.4,5.3-0.4,8c0,71.9,58.5,130.3,130.3,130.3c64.7-0.1,119.5-47.5,128.9-111.4l1.1-11.4c0.1-2.6,0.2-5.1,0.2-7.4
		C356.1,152.2,297.8,93.8,226,93.8L226,93.8z"/>
</g>
<g id="Layer_6" class="st1">
	<path class="st2" d="M226,78.6c-80.3,0-145.6,65.3-145.6,145.6S145.7,369.7,226,369.7s145.6-65.3,145.6-145.6S306.3,78.6,226,78.6z
		 M308.9,317c-20.8,0-49.8-10.2-86.1-30.3c-21.1-14.2-41.4-21.1-62.1-21.1c-5.1,0-10.1,0.4-15.1,1.2c6.3-1.1,12.6-1.6,19-1.6
		c16.4,0,32.6,3.6,49.4,10.9c46.3,23.9,79.1,35.4,100.3,35.4c4.1,0,8.2-0.5,12.2-1.5c-1.6,1.9-3.4,3.8-5.1,5.6
		C317.3,316.5,313.1,317,308.9,317z M228,229.9v-0.1c0-1.4,0.8-2.6,2-3.2c6.2-3.1,11.1-8.4,13.7-14.8c0.4-0.9,1.3-1.6,2.3-1.6
		c0.4,0,0.9,0.1,1.2,0.3c10.8,6.4,19.6,9.6,26.2,9.6c5,0,7.8-1.9,9.2-3.5c1.8-2,2.7-4.7,2.5-7.4c-0.2-2.3-2.1-4.1-4.5-4.1h-0.2
		c-0.7,0-1.5,0.1-2.4,0.1c-5.8,0-9.3-0.7-9.9-1.2c-0.2-0.3-0.2-0.6-0.2-0.9c0.1-1.1,0.5-2.2,1.2-3c1.3-1,4.5-2.4,8.9-3.1
		c2.2-0.4,4.4-0.6,6.6-0.6c1,0,2,0,3,0.1c8.9,0.6,17.2,4.6,23.3,11.1c5.4,5.8,12.4,9,19.5,9c5.6,0.1,11-2,15-5.9
		c1.1-1.1,1.6-2.6,1.3-4.1c-0.3-2.2-1.6-4.1-3.5-5.2c-1.1-0.8-1.9-1.9-2.4-3.2c-0.9-2.2-2.9-3.8-5.3-4.2c-0.6-0.1-0.7-0.3-0.8-0.4
		c-0.4-0.7,0-2.9,2.1-6.9c1.2-2.2,0.4-4.9-1.8-6.1c-0.7-0.4-1.4-0.6-2.2-0.6h-8.3c-0.5,0-1-0.3-1.3-0.7c-0.3-0.5-0.3-1,0-1.5
		l2.8-5.1c0.6-1,0.7-2.2,0.3-3.4c-0.4-1.2-1.2-2.2-2.3-2.7c-2.6-1.4-4.4-4.6-5.5-7.1c-1.1-2.4-3.4-4-6.1-4c-0.4,0-0.9,0-1.3,0.1
		c-0.8,0.2-1.7,0.3-2.5,0.3c-1.9,0-2-0.7-2-0.9c-0.2-2.3-2.2-4.1-4.5-4.2h-0.3c-1.3,0.1-2.6,0.1-3.9,0.1c-10.2,0-16.3-2.6-17.1-7.2
		c-0.4-2.2-2.3-3.8-4.6-3.9c-4.1-0.1-9-1.2-9.3-5.5c-0.1-2-1.5-3.7-3.5-4.1c-1.7-0.4-3.4-0.6-5.1-0.6c-1.8,0-3.6,0.2-5.3,0.7
		c-0.3,0.1-0.7,0.1-1,0.1c-1.6,0-3-1-3.5-2.5c-2.9-8.8-11.3-9.8-14.7-9.8h-1c-0.2,0-0.4,0-0.6-0.1c-4.3-1.7-8.9-2.5-13.5-2.5
		c-5,0-10,0.8-14.8,2.4c-0.9,0.3-1.6,0.8-2.2,1.5c-2,2.7-5.7,4-11.1,4c-2,0-4-0.2-6-0.5c-0.3-0.1-0.6-0.1-0.9-0.1
		c-2.5,0-4.7,1.5-5.6,3.8c-1.6,3.8-5.3,4.6-8.2,4.6c-0.9,0-1.8-0.1-2.8-0.2c0,0-0.1,0-0.1,0c-1.1-0.6-2.4-1-3.7-1
		c-5.2,0-10,5.4-13.1,9.9c-1.4,2-0.9,4.6,0.9,6.1c7,5.6,6.6,7.3,6.6,7.3c-0.1,0.2-1,0.8-4,0.8c-1.1,0-2.2-0.1-3.3-0.2
		c-0.3,0-0.5,0-0.8,0c-2,0-3.9,0.8-5.1,2.3c-1.9,2.3-5.6,3.4-7.6,3.8c-1.9,0.4-3.3,2-3.5,3.9c-0.6,5,0.2,8.6,2.2,10.9
		c1,1.1,2.3,1.9,3.7,2.2c-0.8,1.6-1.3,3.3-1.6,5.1c-0.1,1.2-1.1,2.1-2.3,2.1c-0.4,0-0.9-0.1-1.3-0.3c-0.8-0.3-1.6-0.5-2.4-0.5
		c-2.1,0-4.9,1.2-6.7,6.9c-0.2,0.7-0.8,1.1-1.5,1.1c-0.3,0-0.6-0.1-0.9-0.3c-3.6-2.4-6.9-3.6-9.6-3.6c-3.9,0-8.7,2.5-8.7,14.5
		c0,13.8,2.5,20.7,7.4,20.7c0.2,0,0.4,0,0.6-0.1h0.2c0.4,0,0.7,0.1,1,0.4c1.1,1.5,2.7,2.7,4.4,3.4c0.7,0.3,1.5,0.4,2.2,0.4
		c2.8,0,5.2-1.8,6.2-4.4c2-5.4,8-6.6,12.6-6.6c1,0,2.1,0.1,3.1,0.2c0.2,0,0.5,0.1,0.7,0.3c11.8,8,21.4,12.1,28.5,12.1
		c6.4,0,9.3-3.4,10.5-5.3c0.3-0.5,0.9-0.8,1.5-0.8h0.1c2.6,0.2,5.9,0.3,9.8,0.3c4.6,0,9.1-0.1,12.2-0.2h0.1c2,0,3.6,1.6,3.6,3.6
		l-1.7,24.1c-64.4,1-95.1,16.8-104.9,23.2c-6.2-15.6-9.4-32.2-9.4-48.9c0-72.9,59.3-132.1,132.2-132.1s132.1,59.2,132.1,132.1
		c0,19.3-4.2,38.3-12.3,55.7c-13.7-7.3-56.7-27.5-119.5-29.8L228,229.9z"/>
</g>
<g>
	<path class="st3" d="M225.9,93.4c35.1,0,68,13.7,92.9,38.4c24.8,24.8,38.4,57.8,38.4,92.9s-13.7,68-38.4,92.9S261,356,225.9,356
		s-68-13.7-92.9-38.4s-38.5-57.7-38.5-92.8s13.7-68,38.4-92.9S190.8,93.4,225.9,93.4 M225.9,83c-78.3,0-141.8,63.5-141.8,141.8
		s63.5,141.8,141.8,141.8s141.7-63.5,141.7-141.8S304.2,83,225.9,83L225.9,83z"/>
</g>
<g>
	<path class="st4" d="M184.6,306V158.2h47.9c18.1,0,30,0.8,35.5,2.2c8.5,2.2,15.5,7,21.3,14.4s8.6,17,8.6,28.7
		c0,9.1-1.7,16.7-5,22.9c-3.3,6.2-7.5,11-12.5,14.6c-5,3.5-10.2,5.9-15.4,7c-7.1,1.4-17.4,2.1-31,2.1h-19.4V306H184.6L184.6,306z
		 M214.5,183.2v41.9h16.4c11.8,0,19.6-0.8,23.5-2.3c4-1.5,7-4,9.3-7.3c2.2-3.3,3.4-7.1,3.4-11.5c0-5.4-1.6-9.8-4.7-13.3
		c-3.1-3.5-7.2-5.7-12-6.6c-3.6-0.7-10.7-1-21.5-1H214.5z"/>
</g>
</svg>
